STARTFONT 2.1
COMMENT 
COMMENT This file has been produced by ttf2bdf written by Subhabrata Biswas
COMMENT 
COMMENT For comments, questions, bug reports, send a mail to
COMMENT                                           subhabrata.biswas@usa.net
COMMENT 
FONT -*-Harlow Solid Italic-Medium-I-Normal--48-360-96-96-c-18--fontspecific
SIZE 36 96 96
FONTBOUNDINGBOX 80 61 -13 -19
STARTPROPERTIES 15
FOUNDRY "Misc"
FAMILY_NAME "Harlow Solid Italic"
WEIGHT_NAME "Medium"
SLANT "I"
SETWIDTH_NAME "Normal"
PIXEL_SIZE 23
POINT_SIZE 360
RESOLUTION_X 96
RESOLUTION_Y 96
SPACING "C"
CHARSET_ENCODING "fontspecific"
FONT_ASCENT 42
FONT_DESCENT 19
DEFAULT_CHAR 31
COPYRIGHT "You may wish to put your copyright here"
ENDPROPERTIES
CHARS 226
STARTCHAR C0030
ENCODING 30
SWIDTH 250 0
DWIDTH 12 0
BBX 10 32 1 0
BITMAP
FFC0
8040
8040
8040
8040
8040
8040
8040
8040
8040
8040
8040
8040
8040
8040
8040
8040
8040
8040
8040
8040
8040
8040
8040
8040
8040
8040
8040
8040
8040
8040
FFC0
ENDCHAR
STARTCHAR C0031
ENCODING 31
SWIDTH 250 0
DWIDTH 12 0
BBX 10 32 1 0
BITMAP
FFC0
8040
8040
8040
8040
8040
8040
8040
8040
8040
8040
8040
8040
8040
8040
8040
8040
8040
8040
8040
8040
8040
8040
8040
8040
8040
8040
8040
8040
8040
8040
FFC0
ENDCHAR
STARTCHAR C0032- 
ENCODING 32
SWIDTH 250 0
DWIDTH 12 0
BBX 1 1 0 -1
BITMAP
00
ENDCHAR
STARTCHAR C0033-!
ENCODING 33
SWIDTH 291 0
DWIDTH 14 0
BBX 15 30 4 0
BITMAP
003C
007E
00FE
00FE
00FE
01FC
01FC
01FC
03F8
03F8
03F0
03F0
07F0
07E0
07E0
0FC0
0FC0
0FC0
1F80
1F80
1F00
1F00
0E00
0000
7800
FC00
FC00
FC00
FC00
7800
ENDCHAR
STARTCHAR C0034-"
ENCODING 34
SWIDTH 479 0
DWIDTH 23 0
BBX 17 14 10 18
BITMAP
1E0F00
3F1F80
3F1F80
3F1F80
7F3F80
7E3F00
7E3F00
7C3E00
7C3E00
FC7E00
F87C00
F87C00
F07800
603000
ENDCHAR
STARTCHAR C0035-#
ENCODING 35
SWIDTH 458 0
DWIDTH 22 0
BBX 24 29 3 0
BITMAP
001C0E
003E1F
003E1F
007E3F
007C3E
00FC7E
00F87C
00F87C
0FFFFE
1FFFFF
1FFFFF
1FFFFF
0FFFFE
07E3F0
07C3E0
0FC7E0
7FFFF0
FFFFF8
FFFFF8
FFFFF8
7FFFF0
3F1F80
3E1F00
7E3F00
7C3E00
FC7E00
F87C00
F87C00
703800
ENDCHAR
STARTCHAR C0036-$
ENCODING 36
SWIDTH 458 0
DWIDTH 22 0
BBX 21 35 4 -3
BITMAP
000780
000F80
000FC0
007FF0
01FFF8
03FFF8
03FFF8
07FFE0
07C000
07C000
07C000
07E000
03E000
01F000
01F800
00F800
00FC00
007C00
007E00
003E00
003F00
001F00
001F80
000F80
000F80
001F80
3FFF80
7FFF80
FFFF00
FFFE00
FFFC00
7FF000
0F8000
0F8000
070000
ENDCHAR
STARTCHAR C0037-%
ENCODING 37
SWIDTH 687 0
DWIDTH 33 0
BBX 26 31 7 -1
BITMAP
03E00C00
0FF01C00
1FF83C00
1E783800
3C787800
78787000
7878F000
F878E000
F0F1E000
F0F1C000
F1E3C000
F3E38000
FFC78000
7F870000
3E0F0000
000E1F00
001E7F80
001CFFC0
003CF3C0
0039E3C0
007BC3C0
0073C3C0
00F7C7C0
00E78780
01E78780
01C78F00
03C79F00
0387FE00
0783FC00
0701F000
06000000
ENDCHAR
STARTCHAR C0038-&
ENCODING 38
SWIDTH 791 0
DWIDTH 38 0
BBX 34 39 3 -7
BITMAP
00003FFC00
0001FFFE00
0003FFFE00
0007FFFE00
000FFFFC00
001FE00000
001F800000
003F000000
003E000E00
003E001F00
003E003F00
003E003F00
003F007E00
001F807E00
000FFFFF80
00FFFFFFC0
03FFFFFFC0
07FFFFFFC0
0FFFFFFF80
1FE003F000
3F8003F000
3F0003E000
7E0007E000
7C0007E000
FC000FC000
F8000FC000
F8000F8000
F8001F8000
F8001F8000
F8003F0000
FC003F0000
7C007E0000
7E00FE0000
7F83FC0000
3FFFF80000
1FFFF00000
0FFFE00000
07FFC00000
01FE000000
ENDCHAR
STARTCHAR C0039-'
ENCODING 39
SWIDTH 291 0
DWIDTH 14 0
BBX 8 14 10 18
BITMAP
1E
3F
3F
3F
7F
7E
7E
7C
7C
FC
F8
F8
F0
60
ENDCHAR
STARTCHAR C0040-(
ENCODING 40
SWIDTH 375 0
DWIDTH 18 0
BBX 17 42 6 -7
BITMAP
000700
001F80
003F80
003F80
007F00
00FE00
01FE00
01FC00
03F800
07F000
07F000
0FE000
0FE000
1FC000
1FC000
3F8000
3F8000
3F0000
7F0000
7F0000
7E0000
7E0000
FE0000
FE0000
FC0000
FC0000
FC0000
FC0000
FC0000
FC0000
FC0000
FC0000
FC0000
FC0000
FC0000
FC0000
7E0000
7E0000
7E0000
7E0000
3E0000
1C0000
ENDCHAR
STARTCHAR C0041-)
ENCODING 41
SWIDTH 375 0
DWIDTH 18 0
BBX 17 42 3 -7
BITMAP
000E00
001E00
001F00
001F00
001F00
001F80
001F80
001F80
001F80
001F80
001F80
001F80
001F80
001F80
001F80
001F80
001F80
001F80
003F80
003F80
003F00
003F00
007F00
007F00
007E00
00FE00
00FE00
01FC00
01FC00
03F800
03F800
07F000
07F000
0FE000
1FC000
3FC000
3F8000
7F0000
FE0000
FE0000
FC0000
700000
ENDCHAR
STARTCHAR C0042-*
ENCODING 42
SWIDTH 458 0
DWIDTH 22 0
BBX 17 16 9 16
BITMAP
00F000
38F800
7CF800
7CF000
7EE000
3EC000
0F8700
01FF80
1FFF80
FEDF80
FCC700
FDE000
F9E000
71F000
01F000
00E000
ENDCHAR
STARTCHAR C0043-+
ENCODING 43
SWIDTH 458 0
DWIDTH 22 0
BBX 20 21 5 4
BITMAP
000E00
001F00
001F00
003F00
003E00
007E00
007C00
00FC00
7FFFE0
FFFFF0
FFFFF0
FFFFF0
7FFFE0
03F000
03E000
07E000
07C000
0FC000
0FC000
0F8000
070000
ENDCHAR
STARTCHAR C0044-,
ENCODING 44
SWIDTH 250 0
DWIDTH 12 0
BBX 8 10 2 -4
BITMAP
1E
3F
3F
3F
3F
3E
3C
78
F0
E0
ENDCHAR
STARTCHAR C0045--
ENCODING 45
SWIDTH 187 0
DWIDTH 9 0
BBX 9 4 2 8
BITMAP
7F00
FF80
FF80
7F00
ENDCHAR
STARTCHAR C0046-.
ENCODING 46
SWIDTH 250 0
DWIDTH 12 0
BBX 6 6 4 0
BITMAP
78
FC
FC
FC
FC
78
ENDCHAR
STARTCHAR C0047-/
ENCODING 47
SWIDTH 375 0
DWIDTH 18 0
BBX 18 41 3 -7
BITMAP
0001C0
0003C0
0003C0
000780
000780
000780
000F00
000F00
001F00
001E00
001E00
003C00
003C00
003C00
007800
007800
00F800
00F000
00F000
01E000
01E000
01E000
03C000
03C000
07C000
078000
078000
0F0000
0F0000
0F0000
1E0000
1E0000
3E0000
3C0000
3C0000
780000
780000
780000
F00000
F00000
E00000
ENDCHAR
STARTCHAR C0048-0
ENCODING 48
SWIDTH 458 0
DWIDTH 22 0
BBX 23 29 3 0
BITMAP
000FC0
003FF0
00FFF8
01FFFC
03FFFC
03F87E
07F03E
0FE03E
0FC03E
1F803E
1F003E
3F003E
3E007E
7E007C
7C007C
7C00FC
FC00FC
F801F8
F801F8
F803F0
F803F0
F807E0
FC0FE0
FC3FC0
7FFF80
7FFF00
3FFE00
1FFC00
07F000
ENDCHAR
STARTCHAR C0049-1
ENCODING 49
SWIDTH 458 0
DWIDTH 22 0
BBX 15 29 8 0
BITMAP
07FC
0FFE
0FFE
0FFE
07FC
00FC
00FC
01F8
01F8
01F0
03F0
03F0
07E0
07E0
07C0
0FC0
0FC0
1F80
1F80
1F00
3F00
3F00
7E00
7E00
7C00
FC00
FC00
F800
7000
ENDCHAR
STARTCHAR C0050-2
ENCODING 50
SWIDTH 458 0
DWIDTH 22 0
BBX 21 29 3 0
BITMAP
003F00
00FFC0
01FFE0
03FFF0
07FFF0
07C3F8
0F81F8
0F81F8
0F81F8
0F83F8
0FC3F8
0FE7F0
07EFF0
07FFE0
01FFC0
007F80
00FF00
01FE00
03FC00
07F800
0FF000
1FE000
3FC000
7F8000
7FFFC0
FFFFE0
FFFFE0
FFFFE0
7FFF80
ENDCHAR
STARTCHAR C0051-3
ENCODING 51
SWIDTH 458 0
DWIDTH 22 0
BBX 22 29 4 0
BITMAP
01FFF8
07FFFC
07FFFC
07FFFC
03FFFC
0007F8
000FF0
000FE0
001FC0
003F80
007F00
007F00
007F80
003FC0
000FC0
0007E0
3803E0
7C03E0
7C03E0
FC03E0
F807E0
F807C0
F80FC0
FC3FC0
7FFF80
7FFF00
3FFE00
1FFC00
07F000
ENDCHAR
STARTCHAR C0052-4
ENCODING 52
SWIDTH 458 0
DWIDTH 22 0
BBX 23 29 3 0
BITMAP
000078
0000FC
0001FE
0003FE
0007FE
000FFE
001FFC
003FFC
007EF8
00FFF8
01FDF8
03FBF0
07F3F0
0FE7E0
1FC7E0
1F87C0
3F0FC0
7F0FC0
FFFFF8
FFFFFC
FFFFFC
7FFFFC
3FFFF0
007E00
007E00
00FC00
00FC00
00F800
007000
ENDCHAR
STARTCHAR C0053-5
ENCODING 53
SWIDTH 458 0
DWIDTH 22 0
BBX 22 29 4 0
BITMAP
007FF8
00FFFC
01FFFC
01FFFC
03FFF8
03F000
03F000
07E000
07E000
0FDE00
0FFF00
0FFF80
1FFFC0
1FFFC0
1F87E0
0F03E0
0003E0
3803E0
7C03E0
FC03E0
FC07E0
F80FC0
F81FC0
FC3F80
FFFF80
7FFF00
3FFE00
1FF800
07E000
ENDCHAR
STARTCHAR C0054-6
ENCODING 54
SWIDTH 458 0
DWIDTH 22 0
BBX 19 29 4 0
BITMAP
000E00
001F00
003F00
007F00
007E00
00FC00
01FC00
01F800
03F000
07FE00
07FF80
0FFFC0
1FFFC0
1FFFE0
3F87E0
3F03E0
7E03E0
7C03E0
F803E0
F803E0
F807C0
F80FC0
F81FC0
FC3F80
7FFF00
7FFF00
3FFE00
1FF800
07E000
ENDCHAR
STARTCHAR C0055-7
ENCODING 55
SWIDTH 458 0
DWIDTH 22 0
BBX 20 29 6 0
BITMAP
0FFFC0
3FFFF0
3FFFF0
3FFFF0
1FFFF0
000FE0
000FC0
001FC0
001F80
003F80
007F00
007E00
00FE00
01FC00
01F800
03F800
03F000
07F000
0FE000
0FC000
1FC000
1F8000
3F0000
7F0000
7E0000
FE0000
FC0000
F80000
700000
ENDCHAR
STARTCHAR C0056-8
ENCODING 56
SWIDTH 458 0
DWIDTH 22 0
BBX 22 29 4 0
BITMAP
001FC0
007FF0
01FFF8
03FFF8
07FFFC
07F0FC
0FC07C
0F807C
0F807C
0F80F8
0FC3F8
07FFF0
03FFE0
0FFF80
1FFFC0
3FFFC0
7F07E0
7E03E0
FC03E0
F803E0
F803E0
F807E0
F80FC0
FC1FC0
7FFF80
7FFF00
3FFE00
1FFC00
07E000
ENDCHAR
STARTCHAR C0057-9
ENCODING 57
SWIDTH 458 0
DWIDTH 22 0
BBX 20 29 6 0
BITMAP
00FE00
03FF80
07FFC0
0FFFE0
1FFFE0
3F87F0
3F01F0
7E01F0
7C01F0
FC01F0
F803F0
F803E0
F807E0
F80FC0
FC1FC0
FFFF80
7FFF00
3FFF00
1FFE00
0FFE00
01FC00
01F800
03F800
07F000
07E000
0FE000
0FC000
0F8000
070000
ENDCHAR
STARTCHAR C0058-:
ENCODING 58
SWIDTH 250 0
DWIDTH 12 0
BBX 7 15 4 0
BITMAP
3C
7E
7E
7E
7E
3C
00
00
00
78
FC
FC
FC
FC
78
ENDCHAR
STARTCHAR C0059-;
ENCODING 59
SWIDTH 250 0
DWIDTH 12 0
BBX 9 19 2 -4
BITMAP
0F00
1F80
1F80
1F80
1F80
0F00
0000
0000
0000
1E00
3F00
3F00
3F00
3F00
3E00
3C00
7800
F000
E000
ENDCHAR
STARTCHAR C0060-<
ENCODING 60
SWIDTH 500 0
DWIDTH 24 0
BBX 20 26 2 3
BITMAP
000030
0000F0
0001F0
0007F0
001FF0
007FF0
01FFC0
07FF00
1FFC00
7FF000
FFC000
FF0000
FC0000
FF0000
FFC000
7FF000
1FFC00
07FE00
03FF80
00FFE0
003FF0
000FF0
0003F0
0000F0
000030
000000
ENDCHAR
STARTCHAR C0061-=
ENCODING 61
SWIDTH 458 0
DWIDTH 22 0
BBX 24 13 3 8
BITMAP
07FFFE
1FFFFF
1FFFFF
1FFFFF
0FFFFE
000000
000000
000000
7FFFF0
FFFFF8
FFFFF8
FFFFF8
7FFFE0
ENDCHAR
STARTCHAR C0062->
ENCODING 62
SWIDTH 500 0
DWIDTH 24 0
BBX 20 26 2 3
BITMAP
C00000
E00000
F80000
FE0000
FF8000
FFE000
3FF800
0FFE00
03FF80
00FFE0
003FF0
000FF0
0003F0
000FF0
003FF0
00FFE0
03FF80
0FFF00
1FFC00
7FF000
FFC000
FF0000
FC0000
F00000
C00000
000000
ENDCHAR
STARTCHAR C0063-?
ENCODING 63
SWIDTH 416 0
DWIDTH 20 0
BBX 18 30 6 0
BITMAP
01F800
07FE00
0FFF00
1FFF80
3FFF80
3E1FC0
7C0FC0
7C0FC0
7C0FC0
7C1FC0
7E3F80
7E3F80
3E7F00
1CFE00
01FC00
03F800
07F000
07E000
0FC000
0F8000
0F8000
0F8000
070000
000000
780000
FC0000
FC0000
FC0000
FC0000
780000
ENDCHAR
STARTCHAR C0064-@
ENCODING 64
SWIDTH 729 0
DWIDTH 35 0
BBX 34 34 6 -1
BITMAP
0001FF0000
000FFFE000
003FFFF800
007FFFFC00
01FFFFFE00
03FF00FF00
07F8003F80
0FF0001F80
0FC1E00FC0
1F87FB87C0
3F0FFFC7C0
3F1FFFC7C0
7E3FFFC7C0
7C7F0F87C0
7C7E0F87C0
7CFC0F07C0
F8F81F0F80
F8F81F0F80
F8F83E1F00
F8F87E3F00
F8FFFFFE00
F8FFFFFC00
F87FFFF800
FC3FFFF000
7C1F8FC000
7E00000000
3F00000000
3F80000000
1FE0000000
0FFFFF8000
0FFFFFC000
03FFFFC000
01FFFFC000
001FFF8000
ENDCHAR
STARTCHAR C0065-A
ENCODING 65
SWIDTH 1041 0
DWIDTH 50 0
BBX 52 43 0 -11
BITMAP
00000000003FC0
0000000001FFE0
0000000007FFE0
000000001FFFE0
000000003FFFC0
000000007FFFC0
00000000FF9FC0
00000001FE1F80
00000001FC3F80
00000003F83F00
00000007F83F00
00000007F07F00
0000000FE07E00
0000000FE0FE00
00007FFFFFFFE0
0007FFFFFFFFF0
003FFFFFFFFFF0
007FFFFFFFFFF0
01FFFFFFFFFFC0
03FF80FE03F000
07FC01FC07F000
0FF001FC07F000
1FC003F807E000
3F8003F80FE000
3F8007F00FE000
7F0007F01FC000
7E000FE01FC000
7E000FE01FFF00
FC001FC01FFF80
FC001FC01FFF80
FC003F800FFF80
FC007F0007FE00
FC007F00000000
FC00FE00000000
FE00FE00000000
7F01FC00000000
7F87F800000000
3FFFF800000000
3FFFF000000000
1FFFE000000000
0FFFC000000000
07FF0000000000
01FC0000000000
ENDCHAR
STARTCHAR C0066-B
ENCODING 66
SWIDTH 854 0
DWIDTH 41 0
BBX 48 51 -5 -19
BITMAP
0000003FFFE0
0000007FFFF8
0000007FFFFC
0000007FFFFE
0000003FFFFE
00000003F87F
00000003F83F
00000003F03F
00000007F03F
00000007E03F
0000000FE07F
0000000FE07E
0000000FC0FE
0000001FC1FC
0000001FFFF8
0000003FFFF0
0000003FFFE0
0000003FFFC0
0000007FFFE0
0000007FFFF0
0000007E03F8
000000FE01FC
000000FC00FC
000001FC00FC
000001FC00FC
000001F800FC
000003F800FC
000003F001FC
000007F001F8
000007F003F8
000007E007F0
00000FE00FF0
00000FC07FE0
01FFFFFFFFC0
0FFFFFFFFF80
1FFFFFFFFE00
3FFFFFFFF800
7FFFFFFFC000
7F007F000000
FE007E000000
FC00FE000000
FC00FC000000
FC01FC000000
FC03F8000000
FE07F8000000
7F0FF0000000
7FFFE0000000
3FFFC0000000
1FFF80000000
0FFE00000000
03F800000000
ENDCHAR
STARTCHAR C0067-C
ENCODING 67
SWIDTH 583 0
DWIDTH 28 0
BBX 31 38 3 -6
BITMAP
00001FC0
00007FF0
0001FFF8
0003FFFC
000FFFFE
001FF0FE
003FC07E
007F807E
007F007E
00FE01FE
3FFFFFFC
FFFFFFF8
FFFFFFF0
FFFFFFE0
7FFFFE00
0FE00000
0FC00000
0FC00000
1FC00000
1F800000
1F800000
1F800000
3F000000
3F000000
3F000000
3F000000
3F000000
3F000000
3F000000
3F000000
1F800000
1FC00000
1FE00000
0FFFFFFC
07FFFFFE
03FFFFFE
01FFFFFE
007FFFF8
ENDCHAR
STARTCHAR C0068-D
ENCODING 68
SWIDTH 916 0
DWIDTH 44 0
BBX 51 51 -5 -19
BITMAP
0000001FFF8000
0000007FFFF000
0000007FFFFC00
0000007FFFFE00
0000003FFFFF00
00000001F8FF80
00000003F83FC0
00000003F01FC0
00000007F00FC0
00000007F007E0
00000007E007E0
0000000FE007E0
0000000FC007E0
0000001FC007E0
0000001FC007E0
0000001F8007E0
0000003F8007E0
0000003F000FE0
0000007F000FC0
0000007F000FC0
0000007E001FC0
000000FE001F80
000000FC003F80
000001FC003F80
000001FC007F00
000001F800FF00
000003F800FE00
000003F001FC00
000007F003FC00
000007F007F800
000007E01FF000
00000FE03FE000
00000FC1FFC000
01FFFFFFFF8000
0FFFFFFFFE0000
1FFFFFFFFC0000
3FFFFFFFE00000
7FFFFFFF000000
7F007F00000000
FE007E00000000
FC00FE00000000
FC00FC00000000
FC01FC00000000
FC03FC00000000
FE07F800000000
7F0FF000000000
7FFFE000000000
3FFFC000000000
1FFF8000000000
0FFF0000000000
03F80000000000
ENDCHAR
STARTCHAR C0069-E
ENCODING 69
SWIDTH 791 0
DWIDTH 38 0
BBX 52 51 -5 -19
BITMAP
000000007FFFE0
000000007FFFF0
00000000FFFFF0
00000000FFFFE0
00000001FFFFC0
00000001F80000
00000003F80000
00000003F00000
00000007F00000
00000007F00000
00000007E00000
0000000FE00000
0000000FC00000
0000001FC00000
000001FFFE0000
000003FFFF0000
000007FFFF0000
000007FFFF0000
000003FFFC0000
0000007E000000
000000FE000000
000000FE000000
000000FC000000
000001FC000000
000001F8000000
000003F8000000
000003F8000000
000003F0000000
000007F0000000
000007F0000000
000007E0000000
00000FE0000000
00000FC0000000
01FFFFFFFFF800
0FFFFFFFFFFC00
1FFFFFFFFFFC00
3FFFFFFFFFF800
7FFFFFFFFFF000
7F007F00000000
FE007E00000000
FC00FE00000000
FC00FC00000000
FC01FC00000000
FC03F800000000
FE07F800000000
7F0FF000000000
7FFFE000000000
3FFFC000000000
1FFF8000000000
0FFF0000000000
03F80000000000
ENDCHAR
STARTCHAR C0070-F
ENCODING 70
SWIDTH 812 0
DWIDTH 39 0
BBX 50 43 -1 -11
BITMAP
00000000FFFF80
00000001FFFFC0
00000001FFFFC0
00000003FFFFC0
00000003FFFF00
00000007E00000
00000007E00000
0000000FE00000
0000000FC00000
0000000FC00000
0000001FC00000
0000001F800000
0000003F800000
0000003F000000
00007FFFF80000
0007FFFFFC0000
001FFFFFFC0000
007FFFFFFC0000
01FFFFFFF80000
03FF81FC000000
07FC01F8000000
0FF001F8000000
1FE003F0000000
1FC003F0000000
3F8007F0000000
7F0007E0000000
7E0007E0000000
7E000FE0000000
FC000FC0000000
FC001FC0000000
FC001F80000000
FC003F80000000
FC003F80000000
FC007F00000000
FE00FF00000000
7F01FE00000000
7F83FC00000000
7FFFFC00000000
3FFFF800000000
1FFFF000000000
0FFFE000000000
07FF8000000000
00FE0000000000
ENDCHAR
STARTCHAR C0071-G
ENCODING 71
SWIDTH 750 0
DWIDTH 36 0
BBX 35 49 2 -17
BITMAP
000003F800
00000FFE00
00003FFF00
00007FFF80
0000FFFFC0
0001FF0FC0
0003FC07C0
0007F807C0
0007F00FC0
000FE01FC0
03FFFFFF80
0FFFFFFF00
0FFFFFFE00
0FFFFFFC00
07FFFFE000
003F800000
003F803800
001F80FC00
001FC1FC00
001FC3FC00
000FFFFC00
000FFFFC00
0007FFF800
0003FFF800
0000FFF800
000003F000
000007F000
000FFFFFC0
00FFFFFFE0
03FFFFFFE0
0FFFFFFFE0
1FFFFFFF80
3FF81F8000
3FC03F8000
7F803F0000
7F003F0000
FE007F0000
FC007E0000
FC00FE0000
FC00FC0000
FC01FC0000
FC01F80000
FE03F80000
7F0FF00000
7FFFE00000
3FFFC00000
1FFF800000
07FF000000
01FC000000
ENDCHAR
STARTCHAR C0072-H
ENCODING 72
SWIDTH 1041 0
DWIDTH 50 0
BBX 52 43 -1 -11
BITMAP
000000007801C0
00000000FC03E0
00000001FC07E0
00000001FC07E0
00000001F80FC0
00000003F80FC0
00000003F01FC0
00000007F01F80
00000007E01F80
0000000FE03F80
0000000FC03F00
0000001FC07F00
0000001FC07E00
0000003F80FE00
00003FFFFFFFE0
0003FFFFFFFFF0
001FFFFFFFFFF0
007FFFFFFFFFF0
00FFFFFFFFFFC0
03FF80FC03F000
07FC01FC07F000
0FF001FC07F000
1FE001F807E000
1FC003F80FE000
3F8003F00FE000
7F0007F01FC000
7E0007F01FC000
7E0007E01FFF00
FC000FE01FFF80
FC000FC01FFF80
FC001FC00FFF80
FC001FC007FE00
FC003F80000000
FC007F80000000
FE007F00000000
7F00FF00000000
7F83FE00000000
7FFFFC00000000
3FFFF800000000
1FFFF000000000
0FFFE000000000
07FFC000000000
00FE0000000000
ENDCHAR
STARTCHAR C0073-I
ENCODING 73
SWIDTH 583 0
DWIDTH 28 0
BBX 22 32 6 0
BITMAP
007F00
01FFC0
07FFF0
0FFFF8
1FFFF8
3FC3FC
3F80FC
7F00FC
7E00FC
FC00FC
FC01FC
FC01F8
FC03F8
FC03F8
FE03F0
FF07F0
7FC7E0
7FCFE0
3FCFC0
1FDFC0
0F9FC0
003F80
003F80
007F00
007F00
007E00
00FE00
00FFF8
00FFFC
00FFFC
007FFC
003FF0
ENDCHAR
STARTCHAR C0074-J
ENCODING 74
SWIDTH 729 0
DWIDTH 35 0
BBX 34 49 1 -17
BITMAP
000007F000
00001FFC00
00007FFF00
0000FFFF80
0001FFFF80
0003FC3FC0
0003F80FC0
0007F00FC0
0007E00FC0
000FC00FC0
000FC01FC0
000FC01F80
000FC01F80
000FC03F80
000FE03F00
000FF87F00
0007FE7F00
0007FE7E00
0003FEFE00
0001FCFC00
000079FC00
000001FC00
000001F800
000003F800
000003F000
000007F000
000007F000
000FFFFF80
00FFFFFFC0
03FFFFFFC0
0FFFFFFFC0
1FFFFFFF00
3FF81F8000
3FC03F8000
7F803F0000
7E007F0000
FE007E0000
FC007E0000
FC00FE0000
FC00FC0000
FC01FC0000
FC03F80000
7E03F00000
7F0FF00000
7FFFE00000
3FFFC00000
1FFF800000
07FF000000
01FC000000
ENDCHAR
STARTCHAR C0075-K
ENCODING 75
SWIDTH 791 0
DWIDTH 38 0
BBX 44 38 5 -6
BITMAP
007F00003800
01FFC000FC00
07FFF001FC00
0FFFF801FC00
1FFFF803F800
3FC3FC07F800
3F80FC0FF000
7F00FC1FE000
7E00FC3FC000
FC00FC7F8000
FC01FCFF0000
FC01F9FE0000
FC03FBFC0000
FC03F7F80000
FE03FFF00000
FF87FFE00000
7FE7FFC00000
7FEFFF800000
3FEFDFC00000
1FFFCFC00000
079F8FC00000
003F87E00000
003F87E00000
007F07F00000
007F03F00000
007E03F00000
00FE03F80000
00FC01F80000
01FC01F80000
01F800FC0000
01F800FC0000
00F000FC0000
0000007E0000
0000007FFFE0
0000007FFFF0
0000003FFFF0
0000001FFFF0
0000000FFFC0
ENDCHAR
STARTCHAR C0076-L
ENCODING 76
SWIDTH 750 0
DWIDTH 36 0
BBX 46 51 -4 -19
BITMAP
000000000FC0
000000003FE0
00000000FFF0
00000000FFF8
00000001FFFC
00000003F8FC
00000003F0FC
00000007F0FC
00000007E1FC
0000000FE3F8
000003FFFFF8
00000FFFFFF0
00000FFFFFE0
00000FFFFFC0
000007FFFE00
0000003F0000
0000007F0000
0000007F0000
0000007E0000
000000FE0000
000000FC0000
000001FC0000
000001FC0000
000001F80000
000003F80000
000003F80000
000003F00000
000007F00000
000007E00000
00000FE00000
00000FE00000
00000FC00000
00001FC00000
03FFFFFFFFF0
0FFFFFFFFFF8
1FFFFFFFFFF8
3FFFFFFFFFF8
7FFFFFFFFFE0
7F007E000000
FE00FE000000
FC00FC000000
FC01FC000000
FC01F8000000
FC03F8000000
FE07F0000000
7F1FF0000000
7FFFE0000000
3FFFC0000000
1FFF80000000
0FFE00000000
03F800000000
ENDCHAR
STARTCHAR C0077-M
ENCODING 77
SWIDTH 1062 0
DWIDTH 51 0
BBX 53 43 0 -11
BITMAP
00000000E000F0
00000001F003F8
00000003F007F8
00000003F80FF8
00000003F81FF8
00000007F83FF0
00000007FC7FF0
0000000FFCFFE0
0000000FFDFFE0
0000001FFFFFE0
0000001FFFFFC0
0000001FFFFFC0
0000003FFFDF80
0000003F3F9F80
0001F87F3F3F80
000FFE7F3E3F00
007FFE7E1C7F00
00FFFEFE007E00
03FFFEFC00FE00
07FFFDFC00FE00
0FFF81FC00FC00
1FF801F801FC00
1FE003F801F800
3FC003F003F800
3F8007F003F800
7F0007F003F000
7E0007E007F000
7E000FE007FFC0
FC000FC007FFE0
FC001FC007FFE0
FC001F8003FFE0
FC003F8001FF80
FC003F80000000
FC007F00000000
FE00FF00000000
7E01FE00000000
7F83FC00000000
7FFFFC00000000
3FFFF800000000
1FFFF000000000
0FFFE000000000
07FF8000000000
01FE0000000000
ENDCHAR
STARTCHAR C0078-N
ENCODING 78
SWIDTH 1000 0
DWIDTH 48 0
BBX 57 43 0 -11
BITMAP
00000000F003FF00
00000001F807FF80
00000003F807FF80
00000003F807FF80
00000003F80FFE00
00000007F80FC000
00000007F81FC000
0000000FF81F8000
0000000FFC1F8000
0000000FFC3F0000
0000001FFC3F0000
0000001FFC7F0000
0000003FFC7E0000
0000003FFC7E0000
0001F87FFCFC0000
000FFE7EFCFC0000
007FFE7E7DFC0000
00FFFEFE7DF80000
03FFFEFC7FF80000
07FFFDFC7FF00000
0FFF81F87FF00000
1FF801F87FF00000
1FE003F87FE00000
3FC003F07FE00000
3F8007F07FC00000
7F0007E07FC00000
7E0007E07FC00000
7E000FE07F800000
FC000FC07F800000
FC001FC03F000000
FC001F803F000000
FC003F801E000000
FC003F8000000000
FC007F0000000000
FE00FF0000000000
7E01FE0000000000
7F83FC0000000000
7FFFFC0000000000
3FFFF80000000000
1FFFF00000000000
0FFFE00000000000
07FF800000000000
01FE000000000000
ENDCHAR
STARTCHAR C0079-O
ENCODING 79
SWIDTH 666 0
DWIDTH 32 0
BBX 31 39 3 -7
BITMAP
00001FC0
00007FF0
0001FFF8
0003FFFC
000FFFFE
001FF0FE
003FC07E
007F807E
007F007E
00FE01FE
3FFFFFFC
FFFFFFF8
FFFFFFF0
FFFFFFE0
7FFFFF00
0FE00070
0FC000F8
1FC001F8
1F8001F8
3F8001F8
3F0001F8
3F0003F8
3F0003F0
7F0003F0
7E0007F0
7E0007E0
7E000FE0
7E000FC0
7E001FC0
7E003F80
7E003F80
3F007F00
3F80FE00
1FC3FE00
1FFFFC00
0FFFF800
07FFE000
03FFC000
00FE0000
ENDCHAR
STARTCHAR C0080-P
ENCODING 80
SWIDTH 812 0
DWIDTH 39 0
BBX 45 43 0 -11
BITMAP
0000007FFF80
000001FFFFE0
000001FFFFF0
000001FFFFF0
000000FFFFF8
00000007E1F8
0000000FE1F8
0000000FC1F8
0000000FC1F8
0000001FC3F0
0000001FFFF0
0000003FFFE0
0000003FFFC0
0000003FFF80
0001F87FFE00
000FFE7E0000
007FFEFE0000
00FFFEFC0000
03FFFEFC0000
07FFFDF80000
0FFF81F80000
1FF803F80000
1FE003F00000
3FC003F00000
3F8007F00000
7F0007E00000
7E000FE00000
7E000FC00000
FC001FC00000
FC001FC00000
FC001F800000
FC003F800000
FC007F000000
FC007F000000
FE00FE000000
7E01FE000000
7F87FC000000
7FFFF8000000
3FFFF8000000
1FFFF0000000
0FFFC0000000
07FF80000000
01FE00000000
ENDCHAR
STARTCHAR C0081-Q
ENCODING 81
SWIDTH 708 0
DWIDTH 34 0
BBX 34 38 5 -6
BITMAP
0007F00000
001FFC0000
007FFE0000
00FFFF0000
01FFFF0000
03FC3F8000
07F01F8000
0FE01FC000
0FC00FC000
1FC00FC000
1F800FC000
3F800FC000
3F000FC000
7F000FC000
7E000FC000
7E001FC000
7E001F8000
FE001F8000
FC003F8000
FC003F8000
FC783F0000
FCFC7F0000
FCFC7E0000
FCFEFE0000
FC7FFC0000
FE7FFC0000
7E3FF80000
7F3FF00000
7FFFE00000
3FFFC00000
1FFFE00000
0FFFE00000
03FFF00000
0003FFFF80
0003FFFFC0
0001FFFFC0
0000FFFFC0
00007FFF80
ENDCHAR
STARTCHAR C0082-R
ENCODING 82
SWIDTH 916 0
DWIDTH 44 0
BBX 59 43 0 -11
BITMAP
0000007FFF000000
000001FFFFC00000
000001FFFFE00000
000001FFFFF00000
000000FFFFF00000
00000007E3F80000
0000000FE1F80000
0000000FE1F80000
0000000FC1F80000
0000001FC1F80000
0000001F81F80000
0000003F83F80000
0000003F87F00000
0000003F0FF00000
0001F87FFFE00000
000FFE7FFFC00000
007FFEFFFF800000
00FFFEFFFF000000
03FFFEFDFC000000
07FFFDFDFC000000
0FFF81F8FC000000
1FF803F8FC000000
1FE003F87E000000
3FC003F07E000000
3F8007F07F000000
7F0007F03F000000
7E000FE03F000000
7E000FE01F800000
FC000FC01F800000
FC001FC00FC00000
FC001F800FC00000
FC003F800FE00000
FC003F8007E00000
FC007F0007FFFFC0
FE00FF0003FFFFE0
7E01FE0003FFFFE0
7F83FC0001FFFFE0
7FFFFC00007FFF80
3FFFF80000000000
1FFFF00000000000
0FFFE00000000000
07FF800000000000
01FE000000000000
ENDCHAR
STARTCHAR C0083-S
ENCODING 83
SWIDTH 666 0
DWIDTH 32 0
BBX 33 43 3 -11
BITMAP
00000FF000
00007FFC00
0000FFFE00
0003FFFF00
0007FFFF00
0007F83F80
000FE01F80
000FC01F80
001F801F80
001F803F80
0FFFFFFF00
1FFFFFFF00
1FFFFFFE00
1FFFFFF800
0FFFFFE000
000FF00000
0007F80000
00F3FC0000
03F9FE0000
07F9FE0000
0FF8FF0000
1FF87F8000
3FF03F8000
3FC01FC000
7F800FC000
7F000FE000
7E0007E000
FE0007E000
FC0007E000
FC0007E000
FC0007E000
FC0007E000
FC000FE000
FC000FC000
7E001FC000
7E003F8000
7F007F8000
3FC0FF0000
1FFFFE0000
1FFFFC0000
07FFF80000
03FFE00000
007F800000
ENDCHAR
STARTCHAR C0084-T
ENCODING 84
SWIDTH 750 0
DWIDTH 36 0
BBX 44 43 0 -11
BITMAP
000001FFFFE0
000007FFFFF0
000007FFFFF0
000007FFFFF0
000003FFFFC0
00000007E000
0000000FE000
0000000FE000
0000000FC000
0000001FC000
0000001F8000
0000003F8000
0000003F8000
0000003F0000
0001F87F0000
000FFE7E0000
007FFEFE0000
00FFFEFE0000
03FFFEFC0000
07FFFDFC0000
0FFF81F80000
1FF803F80000
1FE003F80000
3FC003F00000
3F8007F00000
7F0007F00000
7E000FE00000
7E000FE00000
FC000FC00000
FC001FC00000
FC001F800000
FC003F800000
FC003F800000
FC007F000000
FE00FF000000
7E01FE000000
7F83FC000000
7FFFFC000000
3FFFF8000000
1FFFF0000000
0FFFE0000000
07FF80000000
01FE00000000
ENDCHAR
STARTCHAR C0085-U
ENCODING 85
SWIDTH 854 0
DWIDTH 41 0
BBX 45 33 5 -1
BITMAP
007F00003FF0
01FFC0007FF8
07FFF000FFF8
0FFFF800FFF8
1FFFF801FFE0
3FC3FC01FC00
3F80FC01F800
7F00FC03F800
7E00FC03F000
FC00FC07F000
FC01FC07E000
FC01F807E000
FC03F80FE000
FC03F80FC000
FE03F01FC000
FF87F01F8000
7FE7E01F8000
7FEFE03F8000
3FEFC03F0000
1FFFC07F0000
079FC07E0000
001F807E0000
003F80FE0000
003F00FC0000
003F01FC0000
003F01F80000
003F03F80000
003F87F00000
001FFFF00000
001FFFE00000
000FFFC00000
0003FF800000
0000FC000000
ENDCHAR
STARTCHAR C0086-V
ENCODING 86
SWIDTH 833 0
DWIDTH 40 0
BBX 46 33 4 -1
BITMAP
003F80001FF8
01FFE0003FFC
07FFF0003FFC
0FFFF8007FFC
1FFFF800FFF0
3FC3F800FC00
3F81FC01FC00
7F01FC01F800
7E00FC03F800
FC00FC07F000
FC00FC07E000
FC00FC0FE000
FC00FC0FC000
FE00FC1FC000
FF00FC3F8000
7FFCFC3F0000
7FFEFC7F0000
3FFEFC7E0000
1FFEFCFE0000
0FFCFCFC0000
03F0FDFC0000
0000FFF80000
0000FFF00000
0000FFF00000
0000FFE00000
0000FFE00000
0000FFC00000
0000FF800000
0000FF800000
0000FF000000
00007F000000
00007E000000
00003C000000
ENDCHAR
STARTCHAR C0087-W
ENCODING 87
SWIDTH 1166 0
DWIDTH 56 0
BBX 60 33 5 -1
BITMAP
007F0000F0003FE0
01FFC001F8007FF0
07FFE003FC00FFF0
0FFFF003FC01FFF0
1FFFF007FC01FFC0
3FC3F807FC03F800
3F03F80FFC03F000
7E01F80FFC07F000
7E01F81FFC07E000
FC01F81FFC0FC000
FC01F83FFC1FC000
FC01F83FFC1F8000
FC01F87EFC3F8000
FE01F87EFC3F0000
FF01F8FCFC7F0000
7FF9F8FCF87E0000
7FFDF9FDF8FC0000
3FFDF9F9F9FC0000
3FFDF9F9F9F80000
0FF9FBF1FBF80000
07E1FBF1FBF00000
0001FFE1FFF00000
0001FFE1FFE00000
0001FFC1FFC00000
0000FFC1FFC00000
0000FF81FF800000
0000FF81FF800000
0000FF01FF000000
0000FF01FF000000
0000FE01FE000000
0000FE01FC000000
0000FC00FC000000
0000780078000000
ENDCHAR
STARTCHAR C0088-X
ENCODING 88
SWIDTH 770 0
DWIDTH 37 0
BBX 41 38 6 -6
BITMAP
003F0007FC00
01FFC00FFE00
03FFE01FFE00
0FFFF03FFE00
1FFFF87FFC00
3FFFF87F0000
3FC3F8FE0000
7F01FDFC0000
7E00FFF80000
FE00FFF80000
FC00FFF00000
FC00FFE00000
FC00FFC00000
FC007FC00000
FE007F800000
FFC0FF000000
7FF1FE000000
7FF1FF000000
3FF3FF000000
1FE7FF000000
07CFFF000000
001FFF000000
003FDF800000
003FDF800000
007F9F800000
00FF1F800000
01FE1F800000
03FC0F800000
03F80FC00000
07F80FC00000
07F00FC00000
07E00FC00000
03C00FE00000
000007FFFF00
000007FFFF80
000007FFFF80
000003FFFF80
000001FFFE00
ENDCHAR
STARTCHAR C0089-Y
ENCODING 89
SWIDTH 895 0
DWIDTH 43 0
BBX 45 49 6 -17
BITMAP
007F00003FF0
01FFC0007FF8
07FFF000FFF8
0FFFF000FFF8
1FFFF801FFE0
3FC3F801F800
3F80FC01F800
7F00FC03F000
7E00FC03F000
FC00FC03F000
FC01FC07E000
FC01F807E000
FC01F80FE000
FC03F80FC000
FE03F00FC000
FF83F01F8000
7FE7E01F8000
7FE7E03F8000
3FE7E03F0000
1FC7E07F0000
0787F0FE0000
0003FFFE0000
0003FFFE0000
0001FFFC0000
0000FFFC0000
00003FFC0000
000001F80000
0007FFFFC000
007FFFFFE000
01FFFFFFE000
03FFFFFFE000
0FFFFFFFC000
1FFC0FE00000
1FE00FC00000
3FC01FC00000
3F801F800000
7F003F800000
7E003F000000
7E003F000000
7E007F000000
7E00FE000000
7E00FC000000
3F01FC000000
3F87F8000000
3FFFF0000000
1FFFF0000000
0FFFE0000000
03FF80000000
00FE00000000
ENDCHAR
STARTCHAR C0090-Z
ENCODING 90
SWIDTH 687 0
DWIDTH 33 0
BBX 35 50 -2 -18
BITMAP
0003FFFF80
0007FFFFC0
0007FFFFC0
0007FFFFC0
0003FFFFC0
0000007F80
000000FF00
000001FE00
000001FE00
000003FC00
000007F800
00000FF000
00000FE000
00001FC000
00003F8000
00007F8000
00007F0000
0000FE0000
0000FF0000
0000FF8000
00007FC000
00001FE000
00000FF000
000007F000
000003F800
000003F800
000001F800
007FFFFFC0
03FFFFFFE0
07FFFFFFE0
1FFFFFFFE0
3FFFFFFF80
3FE001F800
7F8001F800
7F0001F800
FE0003F800
FC0003F800
FC0003F000
FC0007F000
FC0007E000
FC000FE000
FE001FC000
7E003FC000
7F007F8000
3FC1FF0000
3FFFFE0000
1FFFFC0000
0FFFF80000
03FFE00000
00FF000000
ENDCHAR
STARTCHAR C0091-[
ENCODING 91
SWIDTH 458 0
DWIDTH 22 0
BBX 26 40 4 -6
BITMAP
0001FF80
0003FFC0
0007FFC0
0007FF80
000FFF00
000FC000
000FC000
001F8000
001F8000
003F8000
003F0000
003F0000
007F0000
007E0000
007E0000
00FC0000
00FC0000
01FC0000
01F80000
01F80000
03F80000
03F00000
03F00000
07F00000
07E00000
0FE00000
0FC00000
0FC00000
1FC00000
1F800000
1F800000
3F800000
3F000000
7F000000
7F000000
7FF80000
FFFC0000
FFFC0000
FFFC0000
7FF80000
ENDCHAR
STARTCHAR C0092-\
ENCODING 92
SWIDTH 437 0
DWIDTH 21 0
BBX 6 41 11 -7
BITMAP
70
F0
F0
F0
F0
F0
F0
F0
F0
F0
F0
F0
78
78
78
78
78
78
78
78
78
78
78
78
78
78
78
78
78
3C
3C
3C
3C
3C
3C
3C
3C
3C
3C
3C
18
ENDCHAR
STARTCHAR C0093-]
ENCODING 93
SWIDTH 395 0
DWIDTH 19 0
BBX 27 40 0 -6
BITMAP
0001FFC0
0003FFE0
0003FFE0
0003FFE0
0001FFC0
00001FC0
00001FC0
00003F80
00003F80
00007F00
00007F00
00007F00
0000FE00
0000FE00
0000FC00
0001FC00
0001FC00
0001F800
0003F800
0003F800
0007F000
0007F000
0007E000
000FE000
000FE000
000FC000
001FC000
001F8000
001F8000
003F8000
003F0000
007F0000
007E0000
007E0000
00FE0000
3FFC0000
7FFC0000
FFF80000
FFF80000
7FF00000
ENDCHAR
STARTCHAR C0094-^
ENCODING 94
SWIDTH 500 0
DWIDTH 24 0
BBX 24 16 0 16
BITMAP
00FF00
01FF80
01FF80
03FFC0
03FFC0
07FFE0
07E7E0
0FE7F0
0FC3F0
1FC3F8
1F81F8
1F81F8
3F00FC
3F00FC
7E007E
7E007E
ENDCHAR
STARTCHAR C0095-_
ENCODING 95
SWIDTH 500 0
DWIDTH 24 0
BBX 24 5 0 -8
BITMAP
FFFFFF
FFFFFF
FFFFFF
FFFFFF
FFFFFF
ENDCHAR
STARTCHAR C0096-`
ENCODING 96
SWIDTH 500 0
DWIDTH 24 0
BBX 7 7 10 20
BITMAP
70
F8
FC
FC
3E
1E
0E
ENDCHAR
STARTCHAR C0097-a
ENCODING 97
SWIDTH 458 0
DWIDTH 22 0
BBX 22 18 2 0
BITMAP
01F8E0
07FDF0
0FFFF0
1FFFF0
3F8FE0
3E07E0
7E07E0
7C0FC0
F80FC0
F80FC0
F81F80
F81F80
FC3F00
FFFFF8
7FFFFC
7FFFFC
3FFFFC
1FE7F0
ENDCHAR
STARTCHAR C0098-b
ENCODING 98
SWIDTH 437 0
DWIDTH 21 0
BBX 20 32 2 0
BITMAP
000E00
001F00
003F00
003F00
003E00
007E00
007E00
00FC00
00FC00
00FC00
01F800
01F800
03F000
03F000
03FF00
07FFC0
07FFE0
07FFE0
0FFFF0
0FE3F0
1FC1F0
1F81F0
1F81F0
3F03F0
3F03F0
7E07E0
7F0FE0
7FFFC0
FFFFC0
FFFF80
FFFE00
71FC00
ENDCHAR
STARTCHAR C0099-c
ENCODING 99
SWIDTH 375 0
DWIDTH 18 0
BBX 18 18 2 0
BITMAP
01FC00
07FE00
0FFF00
1FFF80
3FFF80
7F0F80
7E0F80
FC1F00
F80E00
F80000
F80000
F80000
FE0000
FFFF80
7FFFC0
3FFFC0
3FFFC0
0FFF00
ENDCHAR
STARTCHAR C0100-d
ENCODING 100
SWIDTH 479 0
DWIDTH 23 0
BBX 26 32 2 0
BITMAP
00000380
000007C0
00000FC0
00000FC0
00001F80
00001F80
00001F80
00003F00
00003F00
00007E00
00007E00
00007E00
0000FC00
0000FC00
01F9F800
07FFF800
0FFFF800
1FFFF000
3FFFF000
3F8FE000
7E07E000
7C07E000
FC0FC000
F80FC000
F81F8000
F81F8000
FC3F8000
FFFFF800
7FFFFC00
7FFFFC00
3FFFFC00
1FE7F000
ENDCHAR
STARTCHAR C0101-e
ENCODING 101
SWIDTH 395 0
DWIDTH 19 0
BBX 18 18 2 0
BITMAP
01F800
07FE00
0FFF00
1FFF80
3FFF80
7F0F80
7E0F80
7FFF80
FFFF00
FFFE00
FFFC00
FC0000
FC0000
FFFF80
7FFFC0
7FFFC0
3FFFC0
0FFF80
ENDCHAR
STARTCHAR C0102-f
ENCODING 102
SWIDTH 333 0
DWIDTH 16 0
BBX 31 48 -4 -16
BITMAP
000003FC
00000FFE
00001FFE
00003FFE
00007FF8
00007F00
0000FE00
0000FC00
0001F800
0001F800
0001F800
0003F000
0003F000
0007E000
00FFFF00
01FFFF80
01FFFF80
01FFFF80
00FFFF00
001F8000
003F0000
003F0000
003F0000
007E0000
007E0000
00FC0000
00FC0000
00FC0000
01F80000
01F80000
03F00000
03F00000
07E00000
07E00000
07E00000
0FC00000
0FC00000
1F800000
1F800000
3F000000
3F000000
3F000000
7E000000
7E000000
FC000000
FC000000
F8000000
70000000
ENDCHAR
STARTCHAR C0103-g
ENCODING 103
SWIDTH 437 0
DWIDTH 21 0
BBX 29 35 -6 -17
BITMAP
0000F8F0
0003FFF8
000FFFF8
001FFFF8
001FFFF0
003F87F0
007E03E0
007C03E0
00FC07E0
00F807C0
00F80FC0
00F81F80
00FC1F80
00FFFF00
007FFF00
007FFF00
003FFE00
001F7E00
0000FC00
01FFFFE0
0FFFFFF0
1FFFFFF0
3FFFFFF0
7FFFFFC0
7E03F000
FC07E000
F807E000
F80FC000
F81FC000
FC3F8000
7FFF8000
7FFF0000
3FFE0000
1FFC0000
07F00000
ENDCHAR
STARTCHAR C0104-h
ENCODING 104
SWIDTH 500 0
DWIDTH 24 0
BBX 23 32 2 0
BITMAP
000700
000F80
001F80
001F80
003F00
003F00
003E00
007E00
007C00
00FC00
00FC00
01F800
01F800
01F000
03F7C0
03FFF0
07FFF8
07FFF8
07FFF8
0FE1F8
0FC1F8
1FC1F0
1F83F0
3F83E0
3F07E0
3F07C0
7E0FC0
7E1FFC
FC1FFE
FC1FFE
F81FFE
7007FC
ENDCHAR
STARTCHAR C0105-i
ENCODING 105
SWIDTH 270 0
DWIDTH 13 0
BBX 13 25 2 0
BITMAP
00F0
01F8
01F8
01F8
01F8
00F0
0000
01C0
07E0
07E0
0FE0
0FC0
0FC0
1F80
1F80
3F80
3F00
3F00
7E00
7E00
FFE0
FFF0
FFF0
7FF0
3FE0
ENDCHAR
STARTCHAR C0106-j
ENCODING 106
SWIDTH 291 0
DWIDTH 14 0
BBX 31 42 -13 -17
BITMAP
0000003C
0000007E
0000007E
0000007E
0000007E
0000003C
00000000
00000000
00007FE0
0000FFF0
0000FFF0
0000FFF0
00007FF0
000007E0
000007E0
00000FC0
00000FC0
00000FC0
00001F80
00001F80
00003F00
00003F00
00003F00
00007E00
00007E00
0000FC00
03FFFFE0
0FFFFFF0
1FFFFFF0
3FFFFFF0
7FFFFFC0
7E03F000
FC07E000
F807E000
F80FC000
F81FC000
FC3F8000
7FFF8000
7FFF0000
3FFE0000
1FFC0000
07F00000
ENDCHAR
STARTCHAR C0107-k
ENCODING 107
SWIDTH 437 0
DWIDTH 21 0
BBX 20 32 2 0
BITMAP
000700
000F80
001F80
001F80
003F00
003F00
007E00
007E00
007E00
00FC00
00FC00
01F800
01F800
01F000
03F0E0
03E1F0
07E7F0
07EFF0
0FDFE0
0FFFC0
0FFF80
1FFE00
1FFE00
3F7E00
3F3F00
3E3F80
7E1FC0
7E0FC0
FC07E0
FC07E0
F803E0
7001C0
ENDCHAR
STARTCHAR C0108-l
ENCODING 108
SWIDTH 270 0
DWIDTH 13 0
BBX 16 32 2 0
BITMAP
000E
001F
003F
003F
003E
007E
007E
00FC
00FC
00F8
01F8
01F8
03F0
03F0
03E0
07E0
07E0
0FC0
0FC0
0F80
1F80
1F80
3F00
3F00
7E00
7E00
7E00
FFE0
FFF0
FFF0
FFF0
7FC0
ENDCHAR
STARTCHAR C0109-m
ENCODING 109
SWIDTH 729 0
DWIDTH 35 0
BBX 34 18 2 0
BITMAP
03C7C1F000
03DFE7FC00
07FFFFFE00
07FFFFFE00
0FFFFFFE00
0FE3FC7E00
1FC3F87E00
1F83F07C00
1F87F0FC00
3F07E0FC00
3F07E0F800
7E0FC1F800
7E0FC1F800
7E0F83FF80
FC1F83FFC0
FC1F83FFC0
F81F03FFC0
700E01FF80
ENDCHAR
STARTCHAR C0110-n
ENCODING 110
SWIDTH 500 0
DWIDTH 24 0
BBX 23 18 2 0
BITMAP
01C7C0
03FFF0
07FFF8
07FFF8
0FFFF8
0FE1F8
0FC1F8
1FC1F0
1F83F0
3F83E0
3F07E0
3F0FC0
7E0FC0
7E1FFC
FE1FFE
FC1FFE
F81FFE
7007FC
ENDCHAR
STARTCHAR C0111-o
ENCODING 111
SWIDTH 416 0
DWIDTH 20 0
BBX 19 18 2 0
BITMAP
00FC00
07FF00
0FFF80
1FFFC0
3FFFC0
7F07E0
7E03E0
7C03E0
F803E0
F803E0
F807E0
F80FC0
FC1FC0
FFFF80
7FFF80
7FFF00
3FFE00
0FF800
ENDCHAR
STARTCHAR C0112-p
ENCODING 112
SWIDTH 437 0
DWIDTH 21 0
BBX 27 34 -5 -16
BITMAP
00079F00
000FFF80
000FFFC0
001FFFC0
001FC7E0
001F83E0
003F03E0
003F03E0
007E03E0
007E07E0
007E07E0
00FC0FC0
00FE1FC0
01FFFF80
01FFFF80
03FFFF00
03F7FE00
03F3F800
07E00000
07E00000
0FC00000
0FC00000
0FC00000
1F800000
1F800000
3F000000
3F000000
3F000000
7E000000
7E000000
FC000000
FC000000
F8000000
70000000
ENDCHAR
STARTCHAR C0113-q
ENCODING 113
SWIDTH 416 0
DWIDTH 20 0
BBX 18 34 2 -16
BITMAP
00FC00
07FF00
0FFF80
1FFF80
3FFFC0
3F0FC0
7E07C0
7C07C0
7C0FC0
F80F80
F81F80
F81F80
FC3F00
FFFF00
7FFE00
7FFE00
3FFE00
1FFC00
00FC00
00F800
01F800
01F800
03F000
03F000
07E000
07E000
07E000
0FC000
0FC000
1FFC00
1FFE00
1FFE00
1FFE00
0FFC00
ENDCHAR
STARTCHAR C0114-r
ENCODING 114
SWIDTH 416 0
DWIDTH 20 0
BBX 19 21 2 0
BITMAP
0E0000
0F0000
1F0000
1FFFC0
3FFFE0
3FFFE0
3FFFE0
7FFFC0
7CFC00
FDF800
F9F000
FBE000
77C000
07C000
07C000
07E000
07FFC0
07FFE0
03FFE0
01FFE0
00FF80
ENDCHAR
STARTCHAR C0115-s
ENCODING 115
SWIDTH 354 0
DWIDTH 17 0
BBX 15 21 2 0
BITMAP
01C0
03E0
03E0
07E0
07E0
0FE0
0FF0
1FF0
1FF8
3FFC
3F7C
3E7E
1C3E
003E
003E
007E
7FFE
FFFC
FFF8
FFF0
7FE0
ENDCHAR
STARTCHAR C0116-t
ENCODING 116
SWIDTH 291 0
DWIDTH 14 0
BBX 16 24 2 0
BITMAP
0070
00F8
00F8
01F8
01F0
03F0
1FFE
7FFF
7FFF
7FFF
3FFC
0FC0
1F80
1F80
3F80
3F00
3F00
7E00
7E00
FFE0
FFF0
FFF0
FFF0
3FE0
ENDCHAR
STARTCHAR C0117-u
ENCODING 117
SWIDTH 479 0
DWIDTH 23 0
BBX 22 18 2 0
BITMAP
038070
07C0F8
0FC1F8
0FC1F8
1F83F0
1F83F0
3F87F0
3F07E0
3F0FE0
7E0FC0
7E0FC0
FC1F80
FC3F80
FFFFF8
FFFFFC
FFFFFC
7FFFFC
1FCFF8
ENDCHAR
STARTCHAR C0118-v
ENCODING 118
SWIDTH 333 0
DWIDTH 16 0
BBX 18 18 2 0
BITMAP
1C0380
3E07C0
7E0FC0
7E1FC0
7E3F80
7E7F00
7E7E00
7CFE00
FDFC00
FFF800
FFF000
FFE000
FFC000
FFC000
FF8000
FF0000
7E0000
3C0000
ENDCHAR
STARTCHAR C0119-w
ENCODING 119
SWIDTH 562 0
DWIDTH 27 0
BBX 29 18 2 0
BITMAP
1C078070
7E0FC0F8
7E1FC1F8
7E3FC3F8
7E3FC7F0
7E7FCFE0
7CFFCFC0
FDFFDFC0
FDFFBF80
FFFFFF00
FFEFFE00
FFCFFC00
FFDFF800
FF9FF000
FF1FF000
FE1FE000
7E0FC000
38078000
ENDCHAR
STARTCHAR C0120-x
ENCODING 120
SWIDTH 333 0
DWIDTH 16 0
BBX 18 18 1 0
BITMAP
0F0380
1F07C0
1F8FC0
1F9FC0
0FFF80
0FFF00
07FE00
07FC00
03F800
07F000
0FF800
1FF800
3FFC00
7FFC00
FE7E00
FC7E00
F83E00
703C00
ENDCHAR
STARTCHAR C0121-y
ENCODING 121
SWIDTH 437 0
DWIDTH 21 0
BBX 28 35 -6 -17
BITMAP
000700E0
000F83F0
001F83F0
001F83F0
003F07E0
003F07E0
007E0FE0
007E0FC0
007C1FC0
00FC1F80
00F81F80
01F83F80
01F87F00
01FFFF00
01FFFE00
00FFFE00
00FFFE00
003FFC00
0000FC00
01FFFFC0
0FFFFFE0
1FFFFFE0
3FFFFFE0
7FFFFFC0
7E03E000
FC07E000
F807E000
F80FC000
F81FC000
FC3F8000
7FFF0000
7FFF0000
3FFE0000
1FF80000
07E00000
ENDCHAR
STARTCHAR C0122-z
ENCODING 122
SWIDTH 395 0
DWIDTH 19 0
BBX 18 18 2 0
BITMAP
07FF80
1FFFC0
1FFFC0
1FFFC0
0FFF80
007F80
00FF00
01FE00
03FC00
07F800
0FF000
1FE000
3F8000
7FFF80
FFFFC0
FFFFC0
FFFFC0
7FFF00
ENDCHAR
STARTCHAR C0123-{
ENCODING 123
SWIDTH 437 0
DWIDTH 21 0
BBX 26 40 3 -6
BITMAP
00007F80
0001FFC0
0003FFC0
0007FFC0
0007FF80
000FFF00
000FC000
001FC000
001F8000
003F8000
003F0000
003F0000
007F0000
007E0000
00FE0000
01FC0000
07FC0000
1FF80000
3FF00000
3FC00000
3FE00000
1FE00000
0FE00000
07E00000
07E00000
07C00000
0FC00000
0F800000
1F800000
1F000000
3F000000
3F000000
7E000000
7E000000
FFE00000
FFF80000
FFF80000
FFF80000
7FF00000
3FE00000
ENDCHAR
STARTCHAR C0124-|
ENCODING 124
SWIDTH 500 0
DWIDTH 24 0
BBX 6 40 9 -8
BITMAP
FC
FC
FC
FC
FC
FC
FC
FC
FC
FC
FC
FC
FC
FC
FC
FC
FC
FC
FC
FC
FC
FC
FC
FC
FC
FC
FC
FC
FC
FC
FC
FC
FC
FC
FC
FC
FC
FC
FC
FC
ENDCHAR
STARTCHAR C0125-}
ENCODING 125
SWIDTH 437 0
DWIDTH 21 0
BBX 25 40 -2 -6
BITMAP
0001FE00
0003FF00
0007FF80
0007FF80
0007FF80
0003FF80
00003F00
00003F00
00003E00
00007E00
00007C00
0000FC00
0000F800
0001F800
0001F000
0001F000
0003F000
0003F800
0003FE00
0003FF00
0001FF00
0001FF00
0007FE00
000FF800
000FE000
001FC000
001F8000
003F8000
003F0000
003F0000
007F0000
007E0000
00FE0000
00FC0000
1FFC0000
7FF80000
FFF80000
FFF00000
FFE00000
7F000000
ENDCHAR
STARTCHAR C0126-~
ENCODING 126
SWIDTH 666 0
DWIDTH 32 0
BBX 24 9 4 27
BITMAP
07C008
1FF00E
1FFE1E
3FFFFE
7FFFFC
7C7FFC
F81FF8
7003E0
100000
ENDCHAR
STARTCHAR C0127
ENCODING 127
SWIDTH 250 0
DWIDTH 12 0
BBX 10 32 1 0
BITMAP
FFC0
8040
8040
8040
8040
8040
8040
8040
8040
8040
8040
8040
8040
8040
8040
8040
8040
8040
8040
8040
8040
8040
8040
8040
8040
8040
8040
8040
8040
8040
8040
FFC0
ENDCHAR
STARTCHAR C0128
ENCODING 128
SWIDTH 458 0
DWIDTH 22 0
BBX 26 29 2 0
BITMAP
0001FC00
0007FE00
001FFF00
003FFF80
007FFFC0
00FF1FC0
00FE0FC0
01FC0FC0
0FFF8FC0
1FFFDFC0
3FFFDF80
3FFFDF80
1FFF8E00
0FE00000
0FC00000
0FC00000
7FFE0000
FFFF0000
FFFF0000
FFFF0000
7FFE0000
1F800000
1F800000
1FC00000
1FFFF000
0FFFF800
07FFF800
07FFF800
01FFF000
ENDCHAR
STARTCHAR C0129
ENCODING 129
SWIDTH 250 0
DWIDTH 12 0
BBX 10 32 1 0
BITMAP
FFC0
8040
8040
8040
8040
8040
8040
8040
8040
8040
8040
8040
8040
8040
8040
8040
8040
8040
8040
8040
8040
8040
8040
8040
8040
8040
8040
8040
8040
8040
8040
FFC0
ENDCHAR
STARTCHAR C0130
ENCODING 130
SWIDTH 208 0
DWIDTH 10 0
BBX 7 9 2 -4
BITMAP
1C
3E
3E
3E
3E
3C
78
F0
E0
ENDCHAR
STARTCHAR C0131
ENCODING 131
SWIDTH 458 0
DWIDTH 22 0
BBX 27 38 3 -6
BITMAP
00003FC0
0000FFE0
0001FFE0
0003FFE0
0007FF80
0007F000
000FC000
000FC000
001F8000
001F8000
003F0000
003F0000
003F0000
007E0000
0FFFF000
3FFFF800
3FFFF800
3FFFF800
1FFFF000
01F80000
03F00000
03F00000
07E00000
07E00000
07E00000
0FC00000
0FC00000
1F800000
1F800000
3F000000
3F000000
3F000000
7E000000
7E000000
FC000000
FC000000
F8000000
70000000
ENDCHAR
STARTCHAR C0132
ENCODING 132
SWIDTH 395 0
DWIDTH 19 0
BBX 13 9 3 -4
BITMAP
3870
7CF8
7CF8
7CF8
7CF8
78F0
70E0
E1C0
C180
ENDCHAR
STARTCHAR C0133
ENCODING 133
SWIDTH 750 0
DWIDTH 36 0
BBX 28 7 5 0
BITMAP
00000000
780F01E0
FC1F83F0
FC1F83F0
FC1F83F0
FC1F83F0
780F01E0
ENDCHAR
STARTCHAR C0134
ENCODING 134
SWIDTH 500 0
DWIDTH 24 0
BBX 25 41 5 -7
BITMAP
0000E000
0001F000
0003F000
0003F000
0007F000
0007E000
0007E000
000FE000
000FC000
07FFFF00
1FFFFF80
1FFFFF80
1FFFFF80
0FFFFF00
007F0000
007E0000
007E0000
00FC0000
00FC0000
01FC0000
01F80000
01F80000
03F00000
03F00000
07F00000
07E00000
07E00000
0FC00000
0FC00000
1FC00000
1F800000
1F800000
3F000000
3F000000
7F000000
7E000000
7E000000
FC000000
FC000000
F8000000
70000000
ENDCHAR
STARTCHAR C0135
ENCODING 135
SWIDTH 500 0
DWIDTH 24 0
BBX 29 41 1 -7
BITMAP
00000E00
00001F00
00003F00
00003F00
00007F00
00007E00
00007E00
0000FE00
0000FC00
007FFFF0
01FFFFF8
01FFFFF8
01FFFFF8
00FFFFF0
0007F000
0007E000
0007E000
000FE000
000FC000
001FC000
001F8000
001F8000
003F8000
003F0000
007F0000
007F0000
3FFFF800
FFFFFC00
FFFFFC00
FFFFFC00
7FFFF800
01F80000
03F00000
03F00000
07F00000
07E00000
07E00000
0FC00000
0FC00000
0F800000
07000000
ENDCHAR
STARTCHAR C0136
ENCODING 136
SWIDTH 500 0
DWIDTH 24 0
BBX 12 7 10 20
BITMAP
0100
0F80
3FC0
7FE0
FFF0
F9F0
6060
ENDCHAR
STARTCHAR C0137
ENCODING 137
SWIDTH 979 0
DWIDTH 47 0
BBX 41 31 7 -1
BITMAP
01F00C000000
07F81C000000
0FFC3C000000
1F3C38000000
3E3C78000000
7C3C70000000
783CF0000000
F87CE0000000
F079E0000000
F0F9C0000000
F0F3C0000000
F1F380000000
FFE780000000
7FC700000000
3F0F00000000
000E1F007E00
001E7F80FF00
001CFFC1FF80
003CF3C3E780
0039E3C7C780
007BE3CF8780
0073C3CF0780
00F7C3CF0F80
00E7879E0F00
01E7879E1F00
01C78F1E1E00
03C79F1E3E00
0387FE1FFC00
0783FC0FF800
0701F007E000
060000000000
ENDCHAR
STARTCHAR C0138
ENCODING 138
SWIDTH 666 0
DWIDTH 32 0
BBX 33 51 3 -11
BITMAP
0000060F00
00000FBF00
00000FFF00
000007FE00
000003F800
000000E000
0000000000
0000000000
00000FF000
00007FFC00
0000FFFE00
0003FFFF00
0007FFFF00
0007F83F80
000FE01F80
000FC01F80
001F801F80
001F803F80
0FFFFFFF00
1FFFFFFF00
1FFFFFFE00
1FFFFFF800
0FFFFFE000
000FF00000
0007F80000
00F3FC0000
03F9FE0000
07F9FE0000
0FF8FF0000
1FF87F8000
3FF03F8000
3FC01FC000
7F800FC000
7F000FE000
7E0007E000
FE0007E000
FC0007E000
FC0007E000
FC0007E000
FC0007E000
FC000FE000
FC000FC000
7E001FC000
7E003F8000
7F007F8000
3FC0FF0000
1FFFFE0000
1FFFFC0000
07FFF80000
03FFE00000
007F800000
ENDCHAR
STARTCHAR C0139
ENCODING 139
SWIDTH 291 0
DWIDTH 14 0
BBX 7 14 5 3
BITMAP
0C
1E
3E
3E
7C
F8
F8
F8
78
78
7C
3C
3C
18
ENDCHAR
STARTCHAR C0140
ENCODING 140
SWIDTH 979 0
DWIDTH 47 0
BBX 50 38 5 -6
BITMAP
00003F81FFFF80
0000FFE3FFFFC0
0003FFFBFFFFC0
0007FFFBFFFF80
000FFFFFFFFF00
003FE1FFE00000
003F80FFE00000
007F00FFE00000
00FE007FC00000
01FC007FC00000
03F8007F800000
03F0007F800000
07E0007F000000
0FE0007F000000
0FC0007FF80000
1FC000FFFC0000
1F8000FFFC0000
1F8000FFFC0000
3F0000FFF00000
3F0001FC000000
7E0001F8000000
7E0003F8000000
7E0003F0000000
7E0007F0000000
FC0007F0000000
FC000FE0000000
FC001FE0000000
FC001FE0000000
FC003FC0000000
FC007FC0000000
FE00FF80000000
FE01FF80000000
7F87FF80000000
7FFFFFFFFFE000
3FFFFFFFFFF000
1FFFFFFFFFF000
0FFF7FFFFFF000
03FC7FFFFFC000
ENDCHAR
STARTCHAR C0141
ENCODING 141
SWIDTH 250 0
DWIDTH 12 0
BBX 10 32 1 0
BITMAP
FFC0
8040
8040
8040
8040
8040
8040
8040
8040
8040
8040
8040
8040
8040
8040
8040
8040
8040
8040
8040
8040
8040
8040
8040
8040
8040
8040
8040
8040
8040
8040
FFC0
ENDCHAR
STARTCHAR C0142
ENCODING 142
SWIDTH 250 0
DWIDTH 12 0
BBX 10 32 1 0
BITMAP
FFC0
8040
8040
8040
8040
8040
8040
8040
8040
8040
8040
8040
8040
8040
8040
8040
8040
8040
8040
8040
8040
8040
8040
8040
8040
8040
8040
8040
8040
8040
8040
FFC0
ENDCHAR
STARTCHAR C0143
ENCODING 143
SWIDTH 250 0
DWIDTH 12 0
BBX 10 32 1 0
BITMAP
FFC0
8040
8040
8040
8040
8040
8040
8040
8040
8040
8040
8040
8040
8040
8040
8040
8040
8040
8040
8040
8040
8040
8040
8040
8040
8040
8040
8040
8040
8040
8040
FFC0
ENDCHAR
STARTCHAR C0144
ENCODING 144
SWIDTH 250 0
DWIDTH 12 0
BBX 10 32 1 0
BITMAP
FFC0
8040
8040
8040
8040
8040
8040
8040
8040
8040
8040
8040
8040
8040
8040
8040
8040
8040
8040
8040
8040
8040
8040
8040
8040
8040
8040
8040
8040
8040
8040
FFC0
ENDCHAR
STARTCHAR C0145
ENCODING 145
SWIDTH 208 0
DWIDTH 10 0
BBX 7 8 9 24
BITMAP
0E
1E
3C
78
FC
FC
FC
78
ENDCHAR
STARTCHAR C0146
ENCODING 146
SWIDTH 208 0
DWIDTH 10 0
BBX 7 8 9 24
BITMAP
3C
7E
7E
7E
3C
78
F0
E0
ENDCHAR
STARTCHAR C0147
ENCODING 147
SWIDTH 375 0
DWIDTH 18 0
BBX 13 8 10 24
BITMAP
0C18
3C78
78F0
70E0
F9F0
F9F0
F9F0
70E0
ENDCHAR
STARTCHAR C0148
ENCODING 148
SWIDTH 375 0
DWIDTH 18 0
BBX 13 8 10 24
BITMAP
3870
7CF8
7CF8
7CF8
78F0
78F0
F1E0
C180
ENDCHAR
STARTCHAR C0149
ENCODING 149
SWIDTH 666 0
DWIDTH 32 0
BBX 13 13 9 10
BITMAP
0F80
3FE0
7FF0
7FF0
FFF8
FFF8
FFF8
FFF8
FFF8
7FF0
7FF0
3FE0
0F80
ENDCHAR
STARTCHAR C0150
ENCODING 150
SWIDTH 458 0
DWIDTH 22 0
BBX 21 4 3 8
BITMAP
7FFFF0
FFFFF8
FFFFF8
7FFFF0
ENDCHAR
STARTCHAR C0151
ENCODING 151
SWIDTH 583 0
DWIDTH 28 0
BBX 27 4 2 8
BITMAP
7FFFFFE0
FFFFFFE0
FFFFFFE0
7FFFFFE0
ENDCHAR
STARTCHAR C0152
ENCODING 152
SWIDTH 500 0
DWIDTH 24 0
BBX 12 7 10 20
BITMAP
0000
3EE0
7FF0
FFF0
FFE0
FFC0
7380
ENDCHAR
STARTCHAR C0153
ENCODING 153
SWIDTH 812 0
DWIDTH 39 0
BBX 40 24 5 8
BITMAP
0007FF8C0E
000FFF9E1F
000FFF1E3F
0000F03E7E
0000F03FFE
0001E07FFE
0001E07FFC
0003C077FC
01FBC0F7BC
07FBC0F778
0FFF81E078
1FE781E0F0
3E0F81C0F0
7C0F03C0F0
780F03C1E0
F01E0781FE
F01E0781FE
F03C0700FC
F03C000000
F8FC000000
7FF8000000
7FF0000000
3FE0000000
0F80000000
ENDCHAR
STARTCHAR C0154
ENCODING 154
SWIDTH 354 0
DWIDTH 17 0
BBX 17 29 2 0
BITMAP
030F80
07DF80
07FF80
03FF00
01FC00
007000
000000
000000
01C000
03E000
03E000
07E000
07E000
0FE000
0FF000
1FF000
1FF800
3FFC00
3F7C00
3E7E00
1C3E00
003E00
003E00
007E00
7FFE00
FFFC00
FFF800
FFF000
7FE000
ENDCHAR
STARTCHAR C0155
ENCODING 155
SWIDTH 291 0
DWIDTH 14 0
BBX 7 14 5 3
BITMAP
30
78
78
7C
3C
3E
3E
3E
3E
7C
F8
F8
F0
60
ENDCHAR
STARTCHAR C0156
ENCODING 156
SWIDTH 645 0
DWIDTH 31 0
BBX 30 18 2 0
BITMAP
00FC1F80
07FF7FE0
0FFFFFF0
1FFFFFF8
3FFFFFF8
7F0FF0F8
7E07E0F8
7C07FFF8
F807FFF0
F807FFE0
F80FFFC0
F80FC000
FC1FE000
FFFFFFF8
7FFFFFFC
3FFFFFFC
3FFFFFFC
0FF0FFF8
ENDCHAR
STARTCHAR C0157
ENCODING 157
SWIDTH 250 0
DWIDTH 12 0
BBX 10 32 1 0
BITMAP
FFC0
8040
8040
8040
8040
8040
8040
8040
8040
8040
8040
8040
8040
8040
8040
8040
8040
8040
8040
8040
8040
8040
8040
8040
8040
8040
8040
8040
8040
8040
8040
FFC0
ENDCHAR
STARTCHAR C0158
ENCODING 158
SWIDTH 250 0
DWIDTH 12 0
BBX 10 32 1 0
BITMAP
FFC0
8040
8040
8040
8040
8040
8040
8040
8040
8040
8040
8040
8040
8040
8040
8040
8040
8040
8040
8040
8040
8040
8040
8040
8040
8040
8040
8040
8040
8040
8040
FFC0
ENDCHAR
STARTCHAR C0159
ENCODING 159
SWIDTH 895 0
DWIDTH 43 0
BBX 45 57 6 -17
BITMAP
00000F03C000
00001F87E000
00001F87E000
00001F87E000
00001F87E000
00000F03C000
000000000000
000000000000
007F00003FF0
01FFC0007FF8
07FFF000FFF8
0FFFF000FFF8
1FFFF801FFE0
3FC3F801F800
3F80FC01F800
7F00FC03F000
7E00FC03F000
FC00FC03F000
FC01FC07E000
FC01F807E000
FC01F80FE000
FC03F80FC000
FE03F00FC000
FF83F01F8000
7FE7E01F8000
7FE7E03F8000
3FE7E03F0000
1FC7E07F0000
0787F0FE0000
0003FFFE0000
0003FFFE0000
0001FFFC0000
0000FFFC0000
00003FFC0000
000001F80000
0007FFFFC000
007FFFFFE000
01FFFFFFE000
03FFFFFFE000
0FFFFFFFC000
1FFC0FE00000
1FE00FC00000
3FC01FC00000
3F801F800000
7F003F800000
7E003F000000
7E003F000000
7E007F000000
7E00FE000000
7E00FC000000
3F01FC000000
3F87F8000000
3FFFF0000000
1FFFF0000000
0FFFE0000000
03FF80000000
00FE00000000
ENDCHAR
STARTCHAR C0160
ENCODING 160
SWIDTH 250 0
DWIDTH 12 0
BBX 1 1 0 -1
BITMAP
00
ENDCHAR
STARTCHAR C0161
ENCODING 161
SWIDTH 291 0
DWIDTH 14 0
BBX 14 30 0 -12
BITMAP
0078
00FC
00FC
00FC
00FC
0078
0000
0000
00E0
01F0
01F0
03F0
03E0
07E0
07E0
07E0
0FC0
0FC0
1FC0
1F80
3F80
3F80
3F00
7F00
7F00
FE00
FE00
FE00
FC00
7800
ENDCHAR
STARTCHAR C0162
ENCODING 162
SWIDTH 458 0
DWIDTH 22 0
BBX 17 23 5 3
BITMAP
003800
007C00
00FC00
03FE00
0FFF00
1FFF00
3FFF80
3F1F80
7C1F80
7C1F80
F81F00
F80E00
F80000
F80000
FC7000
FFF800
7FF800
7FF800
3FF800
1FF000
0F8000
0F8000
070000
ENDCHAR
STARTCHAR C0163
ENCODING 163
SWIDTH 458 0
DWIDTH 22 0
BBX 24 29 2 0
BITMAP
0007E0
001FF8
003FFC
007FFE
00FFFF
00FC7F
00F83F
01F83F
01F83F
01F87F
01F87E
01F87E
01F83C
01F800
0FFFC0
1FFFE0
1FFFE0
1FFFE0
0FFF80
07E000
07E000
0FC000
1FC000
3F8000
7FFF80
FFFFC0
FFFFC0
FFFFC0
7FFF80
ENDCHAR
STARTCHAR C0164
ENCODING 164
SWIDTH 416 0
DWIDTH 20 0
BBX 21 17 3 6
BITMAP
187C70
3DFFF8
3FFFF8
3FFFF0
1FC7C0
1F83E0
1F03E0
3E03E0
3E03E0
3E03E0
3E07C0
3E07C0
3F0FC0
7FFFE0
FFFFE0
FFFFE0
73F8C0
ENDCHAR
STARTCHAR C0165
ENCODING 165
SWIDTH 458 0
DWIDTH 22 0
BBX 21 29 6 0
BITMAP
038070
03C0F8
07C1F8
07C1F8
07C3F0
07C7F0
07CFE0
07CFC0
1FDFE0
3FFFF0
7FFFF0
7FFFF0
3FFFC0
07F800
07F800
07F000
7FFC00
FFFE00
FFFE00
FFFE00
7FF800
1F8000
1F0000
3F0000
3E0000
7E0000
7E0000
7C0000
380000
ENDCHAR
STARTCHAR C0166
ENCODING 166
SWIDTH 500 0
DWIDTH 24 0
BBX 6 40 9 -8
BITMAP
FC
FC
FC
FC
FC
FC
FC
FC
FC
FC
FC
FC
FC
FC
FC
FC
FC
00
00
00
00
00
00
00
00
FC
FC
FC
FC
FC
FC
FC
FC
FC
FC
FC
FC
FC
FC
FC
ENDCHAR
STARTCHAR C0167
ENCODING 167
SWIDTH 562 0
DWIDTH 27 0
BBX 28 39 0 -6
BITMAP
00007FE0
0001FFF0
0003FFF0
0003FFF0
0007FFE0
0007C000
0007C000
0007C000
0007E000
0003E000
003FF000
00FFF000
01FFF800
01FFF800
03FFFC00
03FFFC00
03E07C00
03E07E00
03E03E00
01F03F00
01F03F00
01F81F00
00F81F00
00FC3F00
007FFF00
007FFE00
003FFC00
003FF800
001FF000
001F0000
001F8000
000F8000
000F8000
001F8000
3FFF8000
FFFF0000
FFFE0000
FFFC0000
7FF80000
ENDCHAR
STARTCHAR C0168
ENCODING 168
SWIDTH 500 0
DWIDTH 24 0
BBX 15 6 9 20
BITMAP
783C
FC7E
FC7E
FC7E
FC7E
783C
ENDCHAR
STARTCHAR C0169
ENCODING 169
SWIDTH 729 0
DWIDTH 35 0
BBX 33 32 5 0
BITMAP
0001FE0000
000FFFC000
003FFFF000
00FE03F800
01F0007C00
03C0003E00
0780001E00
0F007C0F00
1E00FE0700
1C03FF0780
3807C70380
3807870380
707FFF0380
70FFFE0380
70FFF80380
E03C000380
E038000380
E070000380
E070000700
E070000700
E070000700
E078000E00
F03FFC0E00
703FFC1C00
780FF83C00
7800007800
3C0000F000
1E0001E000
1F800FC000
0FFFFF8000
03FFFE0000
00FFF80000
ENDCHAR
STARTCHAR C0170
ENCODING 170
SWIDTH 375 0
DWIDTH 18 0
BBX 18 19 4 10
BITMAP
00F380
03FF80
07FF80
0F8F00
0F0F00
1E1F00
1E1E00
1E1E00
1E3C00
1FFFC0
1FFFC0
0FFFC0
07DF80
000000
000000
FFFC00
FFFE00
FFFE00
7FFC00
ENDCHAR
STARTCHAR C0171
ENCODING 171
SWIDTH 437 0
DWIDTH 21 0
BBX 14 14 5 3
BITMAP
0C18
1E3C
3E7C
3E7C
7CF8
F9F0
F9F0
F9F0
78F0
78F0
7CF8
3C78
3C78
1830
ENDCHAR
STARTCHAR C0172
ENCODING 172
SWIDTH 500 0
DWIDTH 24 0
BBX 20 12 2 0
BITMAP
FFFFF0
FFFFF0
FFFFF0
FFFFF0
FFFFF0
0003F0
0003F0
0003F0
0003F0
0003F0
0003F0
0003F0
ENDCHAR
STARTCHAR C0173
ENCODING 173
SWIDTH 187 0
DWIDTH 9 0
BBX 9 4 2 8
BITMAP
7F00
FF80
FF80
7F00
ENDCHAR
STARTCHAR C0174
ENCODING 174
SWIDTH 729 0
DWIDTH 35 0
BBX 33 32 5 0
BITMAP
0001FE0000
000FFFC000
003FFFF000
00FE03F800
01F0007C00
03C0003E00
0780001E00
0F0FF80F00
1E0FFC0700
1C0FFE0780
3803CE0380
38038E0380
70079E0380
7007FC0380
7007F80380
E00FF00380
E00EE00380
E01EF00380
E01C700700
E01C780700
E03C380700
E038380E00
F0783F0E00
70701F1C00
78700F3C00
7800007800
3C0000F000
1E0001E000
1F800FC000
0FFFFF8000
03FFFE0000
00FFF80000
ENDCHAR
STARTCHAR C0175
ENCODING 175
SWIDTH 250 0
DWIDTH 12 0
BBX 10 32 1 0
BITMAP
FFC0
8040
8040
8040
8040
8040
8040
8040
8040
8040
8040
8040
8040
8040
8040
8040
8040
8040
8040
8040
8040
8040
8040
8040
8040
8040
8040
8040
8040
8040
8040
FFC0
ENDCHAR
STARTCHAR C0176
ENCODING 176
SWIDTH 354 0
DWIDTH 17 0
BBX 16 14 6 18
BITMAP
07E0
1FF8
3FFC
7FFE
FC3F
F81F
F00F
F00F
F00F
781E
7C3E
3FFC
1FF8
07E0
ENDCHAR
STARTCHAR C0177
ENCODING 177
SWIDTH 458 0
DWIDTH 22 0
BBX 26 25 1 2
BITMAP
00007000
0000F800
0001F800
0001F800
0001F000
0003F000
0003E000
03FFFF80
07FFFFC0
07FFFFC0
07FFFFC0
03FFFF00
001F8000
001F8000
001F0000
003F0000
003E0000
003E0000
001C0000
00000000
7FFFE000
FFFFF000
FFFFF000
FFFFF000
7FFFE000
ENDCHAR
STARTCHAR C0178
ENCODING 178
SWIDTH 291 0
DWIDTH 14 0
BBX 13 17 6 12
BITMAP
07C0
0FF0
1FF0
3C78
3C78
3C78
3EF8
1FF0
1FE0
07C0
0F80
1F00
3E00
7C00
FFF0
FFF0
FFE0
ENDCHAR
STARTCHAR C0179
ENCODING 179
SWIDTH 291 0
DWIDTH 14 0
BBX 14 18 6 11
BITMAP
07FC
0FFC
0FFC
00F8
01F0
01E0
03C0
03E0
03F0
70F0
70F0
F0F0
F0F0
F1F0
F1E0
7FC0
7F80
1F00
ENDCHAR
STARTCHAR C0180
ENCODING 180
SWIDTH 500 0
DWIDTH 24 0
BBX 7 6 14 20
BITMAP
7E
7E
7E
F8
F0
E0
ENDCHAR
STARTCHAR C0181
ENCODING 181
SWIDTH 479 0
DWIDTH 23 0
BBX 26 25 -2 -7
BITMAP
00380700
007C0F80
00FC1F80
00FC1F80
01F83F00
01F83F00
01F07E00
03F07E00
03E0FE00
07E0FC00
07E0FC00
0FC1F800
0FC3F800
0FFFFF80
1FFFFFC0
1FFFFFC0
3FFFFFC0
3FFCFF80
7E000000
7E000000
7E000000
FC000000
FC000000
F8000000
70000000
ENDCHAR
STARTCHAR C0182
ENCODING 182
SWIDTH 458 0
DWIDTH 22 0
BBX 30 40 2 -7
BITMAP
003FFFF8
00FFFFFC
01FFFFFC
03FFFFFC
07FFFFF0
07FFCF00
0FFF9F00
0FFF9F00
0FFFBE00
0FFF3E00
0FFF3C00
0FFE7C00
0FFE7C00
07FEF800
07FCF800
01FCF800
0079F000
00F9F000
00F1E000
00F3E000
01F3E000
01E7C000
03E7C000
03C78000
07CF8000
07CF8000
079F0000
0F9F0000
0F1E0000
1F3E0000
1F3E0000
1E7C0000
3E7C0000
3C780000
7CF80000
7CF80000
F9F00000
F9F00000
F1E00000
60C00000
ENDCHAR
STARTCHAR C0183
ENCODING 183
SWIDTH 250 0
DWIDTH 12 0
BBX 6 6 6 6
BITMAP
78
FC
FC
FC
FC
78
ENDCHAR
STARTCHAR C0184
ENCODING 184
SWIDTH 500 0
DWIDTH 24 0
BBX 10 14 9 -12
BITMAP
0E00
0E00
1E00
3C00
3F00
7F80
7FC0
63C0
03C0
03C0
03C0
7F80
FF80
FE00
ENDCHAR
STARTCHAR C0185
ENCODING 185
SWIDTH 291 0
DWIDTH 14 0
BBX 9 18 9 11
BITMAP
1F80
3F80
3F80
3F00
0700
0F00
0E00
1E00
1E00
1C00
3C00
3800
7800
7800
7000
F000
F000
E000
ENDCHAR
STARTCHAR C0186
ENCODING 186
SWIDTH 354 0
DWIDTH 17 0
BBX 18 19 4 10
BITMAP
003E00
00FF80
01FF80
03FFC0
03E3C0
07C3C0
0783C0
0783C0
078780
07FF80
03FF00
03FE00
01FC00
000000
000000
FFFC00
FFFE00
FFFE00
FFFC00
ENDCHAR
STARTCHAR C0187
ENCODING 187
SWIDTH 437 0
DWIDTH 21 0
BBX 14 14 5 3
BITMAP
3060
78F0
78F0
7CF8
3C78
3E7C
3E7C
3E7C
3E7C
7CF8
F9F0
F9F0
F1E0
60C0
ENDCHAR
STARTCHAR C0188
ENCODING 188
SWIDTH 770 0
DWIDTH 37 0
BBX 29 31 9 -1
BITMAP
00001C00
1F801C00
3F803800
3F803800
3F007000
07007000
0F00E000
0E00E000
1E01C000
1E01C000
1C03C000
3C038000
38078070
780700F8
780F01F8
700E03F8
F01E07F0
F01C0FF0
E03C1FF0
00383EE0
00387DE0
0070F9E0
0071F3C0
00E1FFF8
00E1FFF8
01C0FFF0
01C00780
03800F00
03800F00
07000E00
07000000
ENDCHAR
STARTCHAR C0189
ENCODING 189
SWIDTH 770 0
DWIDTH 37 0
BBX 28 31 9 -1
BITMAP
00001C00
1F801C00
3F803800
3F803800
3F007000
07007000
0F00E000
0E00E000
1E01C000
1E01C000
1C03C000
3C038000
38078F80
78071FE0
780F3FE0
700E78F0
F01E78F0
F01C78F0
E03C7DF0
00383FE0
00383FE0
00700FC0
00701F80
00E03F00
00E03E00
01C07C00
01C0FC00
0381FFE0
0381FFE0
0700FFC0
07000000
ENDCHAR
STARTCHAR C0190
ENCODING 190
SWIDTH 770 0
DWIDTH 37 0
BBX 32 31 6 -1
BITMAP
00000380
07FC0380
0FFC0700
0FFC0700
00F80E00
01F00E00
01E01C00
03C01C00
03E03800
03F03800
70F07800
70F07000
F0F0F00E
F0F0E01F
F1F1E03F
F1E1C07F
7FC3C0FE
7F8381FE
1F0783FE
000707DC
00070FBC
000E1F3C
000E3E78
001C3FFF
001C3FFF
00381FFE
003800F0
007001E0
007001E0
00E001C0
00E00000
ENDCHAR
STARTCHAR C0191
ENCODING 191
SWIDTH 416 0
DWIDTH 20 0
BBX 17 30 -1 -12
BITMAP
000F00
001F80
001F80
001F80
001F80
000F00
000000
003800
007C00
007C00
007C00
00FC00
01F800
03F800
07F000
0FE000
1FCE00
3F9F00
7F1F80
7F1F80
FE0F80
FC0F80
FC0F80
FC0F80
FE1F00
7FFF00
7FFE00
3FFC00
1FF800
07E000
ENDCHAR
STARTCHAR C0192
ENCODING 192
SWIDTH 1041 0
DWIDTH 50 0
BBX 52 52 0 -11
BITMAP
00000000001C00
00000000003E00
00000000003F00
00000000003F00
00000000000F80
00000000000780
00000000000380
00000000000000
00000000000000
00000000003FC0
0000000001FFE0
0000000007FFE0
000000001FFFE0
000000003FFFC0
000000007FFFC0
00000000FF9FC0
00000001FE1F80
00000001FC3F80
00000003F83F00
00000007F83F00
00000007F07F00
0000000FE07E00
0000000FE0FE00
00007FFFFFFFE0
0007FFFFFFFFF0
003FFFFFFFFFF0
007FFFFFFFFFF0
01FFFFFFFFFFC0
03FF80FE03F000
07FC01FC07F000
0FF001FC07F000
1FC003F807E000
3F8003F80FE000
3F8007F00FE000
7F0007F01FC000
7E000FE01FC000
7E000FE01FFF00
FC001FC01FFF80
FC001FC01FFF80
FC003F800FFF80
FC007F0007FE00
FC007F00000000
FC00FE00000000
FE00FE00000000
7F01FC00000000
7F87F800000000
3FFFF800000000
3FFFF000000000
1FFFE000000000
0FFFC000000000
07FF0000000000
01FC0000000000
ENDCHAR
STARTCHAR C0193
ENCODING 193
SWIDTH 1041 0
DWIDTH 50 0
BBX 52 51 0 -11
BITMAP
000000000003F0
000000000003F0
000000000003F0
000000000007C0
00000000000780
00000000000700
00000000000000
00000000000000
00000000003FC0
0000000001FFE0
0000000007FFE0
000000001FFFE0
000000003FFFC0
000000007FFFC0
00000000FF9FC0
00000001FE1F80
00000001FC3F80
00000003F83F00
00000007F83F00
00000007F07F00
0000000FE07E00
0000000FE0FE00
00007FFFFFFFE0
0007FFFFFFFFF0
003FFFFFFFFFF0
007FFFFFFFFFF0
01FFFFFFFFFFC0
03FF80FE03F000
07FC01FC07F000
0FF001FC07F000
1FC003F807E000
3F8003F80FE000
3F8007F00FE000
7F0007F01FC000
7E000FE01FC000
7E000FE01FFF00
FC001FC01FFF80
FC001FC01FFF80
FC003F800FFF80
FC007F0007FE00
FC007F00000000
FC00FE00000000
FE00FE00000000
7F01FC00000000
7F87F800000000
3FFFF800000000
3FFFF000000000
1FFFE000000000
0FFFC000000000
07FF0000000000
01FC0000000000
ENDCHAR
STARTCHAR C0194
ENCODING 194
SWIDTH 1041 0
DWIDTH 50 0
BBX 52 52 0 -11
BITMAP
00000000000100
00000000000F80
00000000003FC0
00000000007FE0
0000000000FFF0
0000000000F9F0
000000000060E0
00000000000000
00000000000000
00000000003FC0
0000000001FFE0
0000000007FFE0
000000001FFFE0
000000003FFFC0
000000007FFFC0
00000000FF9FC0
00000001FE1F80
00000001FC3F80
00000003F83F00
00000007F83F00
00000007F07F00
0000000FE07E00
0000000FE0FE00
00007FFFFFFFE0
0007FFFFFFFFF0
003FFFFFFFFFF0
007FFFFFFFFFF0
01FFFFFFFFFFC0
03FF80FE03F000
07FC01FC07F000
0FF001FC07F000
1FC003F807E000
3F8003F80FE000
3F8007F00FE000
7F0007F01FC000
7E000FE01FC000
7E000FE01FFF00
FC001FC01FFF80
FC001FC01FFF80
FC003F800FFF80
FC007F0007FE00
FC007F00000000
FC00FE00000000
FE00FE00000000
7F01FC00000000
7F87F800000000
3FFFF800000000
3FFFF000000000
1FFFE000000000
0FFFC000000000
07FF0000000000
01FC0000000000
ENDCHAR
STARTCHAR C0195
ENCODING 195
SWIDTH 1041 0
DWIDTH 50 0
BBX 53 51 0 -11
BITMAP
00000000000030
00000000001F78
00000000003FF8
00000000007FF0
00000000007FE0
000000000079C0
00000000000000
00000000000000
00000000003FC0
0000000001FFE0
0000000007FFE0
000000001FFFE0
000000003FFFC0
000000007FFFC0
00000000FF9FC0
00000001FE1F80
00000001FC3F80
00000003F83F00
00000007F83F00
00000007F07F00
0000000FE07E00
0000000FE0FE00
00007FFFFFFFE0
0007FFFFFFFFF0
003FFFFFFFFFF0
007FFFFFFFFFF0
01FFFFFFFFFFC0
03FF80FE03F000
07FC01FC07F000
0FF001FC07F000
1FC003F807E000
3F8003F80FE000
3F8007F00FE000
7F0007F01FC000
7E000FE01FC000
7E000FE01FFF00
FC001FC01FFF80
FC001FC01FFF80
FC003F800FFF80
FC007F0007FE00
FC007F00000000
FC00FE00000000
FE00FE00000000
7F01FC00000000
7F87F800000000
3FFFF800000000
3FFFF000000000
1FFFE000000000
0FFFC000000000
07FF0000000000
01FC0000000000
ENDCHAR
STARTCHAR C0196
ENCODING 196
SWIDTH 1041 0
DWIDTH 50 0
BBX 53 51 0 -11
BITMAP
0000000003C0F0
0000000007E1F8
0000000007E1F8
0000000007E1F8
0000000007E1F8
0000000003C0F0
00000000000000
00000000000000
00000000003FC0
0000000001FFE0
0000000007FFE0
000000001FFFE0
000000003FFFC0
000000007FFFC0
00000000FF9FC0
00000001FE1F80
00000001FC3F80
00000003F83F00
00000007F83F00
00000007F07F00
0000000FE07E00
0000000FE0FE00
00007FFFFFFFE0
0007FFFFFFFFF0
003FFFFFFFFFF0
007FFFFFFFFFF0
01FFFFFFFFFFC0
03FF80FE03F000
07FC01FC07F000
0FF001FC07F000
1FC003F807E000
3F8003F80FE000
3F8007F00FE000
7F0007F01FC000
7E000FE01FC000
7E000FE01FFF00
FC001FC01FFF80
FC001FC01FFF80
FC003F800FFF80
FC007F0007FE00
FC007F00000000
FC00FE00000000
FE00FE00000000
7F01FC00000000
7F87F800000000
3FFFF800000000
3FFFF000000000
1FFFE000000000
0FFFC000000000
07FF0000000000
01FC0000000000
ENDCHAR
STARTCHAR C0197
ENCODING 197
SWIDTH 1041 0
DWIDTH 50 0
BBX 53 53 0 -11
BITMAP
000000000003E0
000000000007F0
00000000000FF8
00000000000E38
00000000000E38
00000000000E38
000000000007F0
000000000003E0
00000000000000
00000000000000
00000000003FC0
0000000001FFE0
0000000007FFE0
000000001FFFE0
000000003FFFC0
000000007FFFC0
00000000FF9FC0
00000001FE1F80
00000001FC3F80
00000003F83F00
00000007F83F00
00000007F07F00
0000000FE07E00
0000000FE0FE00
00007FFFFFFFE0
0007FFFFFFFFF0
003FFFFFFFFFF0
007FFFFFFFFFF0
01FFFFFFFFFFC0
03FF80FE03F000
07FC01FC07F000
0FF001FC07F000
1FC003F807E000
3F8003F80FE000
3F8007F00FE000
7F0007F01FC000
7E000FE01FC000
7E000FE01FFF00
FC001FC01FFF80
FC001FC01FFF80
FC003F800FFF80
FC007F0007FE00
FC007F00000000
FC00FE00000000
FE00FE00000000
7F01FC00000000
7F87F800000000
3FFFF800000000
3FFFF000000000
1FFFE000000000
0FFFC000000000
07FF0000000000
01FC0000000000
ENDCHAR
STARTCHAR C0198
ENCODING 198
SWIDTH 1229 0
DWIDTH 59 0
BBX 65 43 2 -11
BITMAP
00000000003FFFFF00
0000000001FFFFFF80
0000000007FFFFFF80
000000001FFFFFFF80
000000003FFFFFFE00
000000007FEFC00000
00000000FF1FC00000
00000000FE1FC00000
00000001FC1F800000
00000003F83F800000
00000003F83F000000
00000007F07F000000
0000000FF07F000000
0000000FE07E000000
00007FFFFFFFF00000
0007FFFFFFFFF80000
003FFFFFFFFFF80000
007FFFFFFFFFF80000
01FFFFFFFFFFE00000
03FFC0FE03F8000000
07FC00FE03F0000000
0FF001FC07F0000000
1FC001FC07E0000000
3F8003F80FE0000000
3F8007F80FE0000000
7F0007F00FC0000000
7E000FE01FC0000000
7E000FE01FC0000000
FC001FC01F80000000
FC001FC03F80000000
FC003F803F00000000
FC003F807F00000000
FC007F007F00000000
FC00FF007FFFFFC000
FE00FE007FFFFFE000
7F01FC007FFFFFE000
7F87FC003FFFFFE000
3FFFF8001FFFFF8000
3FFFF0000000000000
1FFFE0000000000000
0FFFC0000000000000
07FF00000000000000
00FC00000000000000
ENDCHAR
STARTCHAR C0199
ENCODING 199
SWIDTH 583 0
DWIDTH 28 0
BBX 31 50 3 -18
BITMAP
00001FC0
00007FF0
0001FFF8
0003FFFC
000FFFFE
001FF0FE
003FC07E
007F807E
007F007E
00FE01FE
3FFFFFFC
FFFFFFF8
FFFFFFF0
FFFFFFE0
7FFFFE00
0FE00000
0FC00000
0FC00000
1FC00000
1F800000
1F800000
1F800000
3F000000
3F000000
3F000000
3F000000
3F000000
3F000000
3F000000
3F000000
1F800000
1FC00000
1FE00000
0FFFFFFC
07FFFFFE
03FFFFFE
01FFFFFE
007FFFF8
0003C000
00038000
0007E000
000FF000
000FF800
000C7800
00007800
00007800
00007800
000FF000
001FF000
001FC000
ENDCHAR
STARTCHAR C0200
ENCODING 200
SWIDTH 791 0
DWIDTH 38 0
BBX 52 60 -5 -19
BITMAP
00000000018000
0000000007E000
0000000007E000
0000000007E000
0000000001F000
0000000000F000
00000000007000
00000000000000
00000000000000
000000007FFFE0
000000007FFFF0
00000000FFFFF0
00000000FFFFE0
00000001FFFFC0
00000001F80000
00000003F80000
00000003F00000
00000007F00000
00000007F00000
00000007E00000
0000000FE00000
0000000FC00000
0000001FC00000
000001FFFE0000
000003FFFF0000
000007FFFF0000
000007FFFF0000
000003FFFC0000
0000007E000000
000000FE000000
000000FE000000
000000FC000000
000001FC000000
000001F8000000
000003F8000000
000003F8000000
000003F0000000
000007F0000000
000007F0000000
000007E0000000
00000FE0000000
00000FC0000000
01FFFFFFFFF800
0FFFFFFFFFFC00
1FFFFFFFFFFC00
3FFFFFFFFFF800
7FFFFFFFFFF000
7F007F00000000
FE007E00000000
FC00FE00000000
FC00FC00000000
FC01FC00000000
FC03F800000000
FE07F800000000
7F0FF000000000
7FFFE000000000
3FFFC000000000
1FFF8000000000
0FFF0000000000
03F80000000000
ENDCHAR
STARTCHAR C0201
ENCODING 201
SWIDTH 791 0
DWIDTH 38 0
BBX 52 59 -5 -19
BITMAP
00000000007E00
0000000000FE00
0000000000FE00
0000000001F800
0000000001F000
0000000000C000
00000000000000
00000000000000
000000007FFFE0
000000007FFFF0
00000000FFFFF0
00000000FFFFE0
00000001FFFFC0
00000001F80000
00000003F80000
00000003F00000
00000007F00000
00000007F00000
00000007E00000
0000000FE00000
0000000FC00000
0000001FC00000
000001FFFE0000
000003FFFF0000
000007FFFF0000
000007FFFF0000
000003FFFC0000
0000007E000000
000000FE000000
000000FE000000
000000FC000000
000001FC000000
000001F8000000
000003F8000000
000003F8000000
000003F0000000
000007F0000000
000007F0000000
000007E0000000
00000FE0000000
00000FC0000000
01FFFFFFFFF800
0FFFFFFFFFFC00
1FFFFFFFFFFC00
3FFFFFFFFFF800
7FFFFFFFFFF000
7F007F00000000
FE007E00000000
FC00FE00000000
FC00FC00000000
FC01FC00000000
FC03F800000000
FE07F800000000
7F0FF000000000
7FFFE000000000
3FFFC000000000
1FFF8000000000
0FFF0000000000
03F80000000000
ENDCHAR
STARTCHAR C0202
ENCODING 202
SWIDTH 791 0
DWIDTH 38 0
BBX 52 60 -5 -19
BITMAP
00000000000800
00000000007C00
0000000001FE00
0000000003FF00
0000000007FF80
0000000007CF80
00000000030300
00000000000000
00000000000000
000000007FFFE0
000000007FFFF0
00000000FFFFF0
00000000FFFFE0
00000001FFFFC0
00000001F80000
00000003F80000
00000003F00000
00000007F00000
00000007F00000
00000007E00000
0000000FE00000
0000000FC00000
0000001FC00000
000001FFFE0000
000003FFFF0000
000007FFFF0000
000007FFFF0000
000003FFFC0000
0000007E000000
000000FE000000
000000FE000000
000000FC000000
000001FC000000
000001F8000000
000003F8000000
000003F8000000
000003F0000000
000007F0000000
000007F0000000
000007E0000000
00000FE0000000
00000FC0000000
01FFFFFFFFF800
0FFFFFFFFFFC00
1FFFFFFFFFFC00
3FFFFFFFFFF800
7FFFFFFFFFF000
7F007F00000000
FE007E00000000
FC00FE00000000
FC00FC00000000
FC01FC00000000
FC03F800000000
FE07F800000000
7F0FF000000000
7FFFE000000000
3FFFC000000000
1FFF8000000000
0FFF0000000000
03F80000000000
ENDCHAR
STARTCHAR C0203
ENCODING 203
SWIDTH 791 0
DWIDTH 38 0
BBX 52 59 -5 -19
BITMAP
000000000F03C0
000000001F87E0
000000001F87E0
000000001F87E0
000000001F87E0
000000000F03C0
00000000000000
00000000000000
000000007FFFE0
000000007FFFF0
00000000FFFFF0
00000000FFFFE0
00000001FFFFC0
00000001F80000
00000003F80000
00000003F00000
00000007F00000
00000007F00000
00000007E00000
0000000FE00000
0000000FC00000
0000001FC00000
000001FFFE0000
000003FFFF0000
000007FFFF0000
000007FFFF0000
000003FFFC0000
0000007E000000
000000FE000000
000000FE000000
000000FC000000
000001FC000000
000001F8000000
000003F8000000
000003F8000000
000003F0000000
000007F0000000
000007F0000000
000007E0000000
00000FE0000000
00000FC0000000
01FFFFFFFFF800
0FFFFFFFFFFC00
1FFFFFFFFFFC00
3FFFFFFFFFF800
7FFFFFFFFFF000
7F007F00000000
FE007E00000000
FC00FE00000000
FC00FC00000000
FC01FC00000000
FC03F800000000
FE07F800000000
7F0FF000000000
7FFFE000000000
3FFFC000000000
1FFF8000000000
0FFF0000000000
03F80000000000
ENDCHAR
STARTCHAR C0204
ENCODING 204
SWIDTH 583 0
DWIDTH 28 0
BBX 22 41 6 0
BITMAP
007000
00FC00
00FC00
00FC00
003E00
001E00
000E00
000000
000000
007F00
01FFC0
07FFF0
0FFFF8
1FFFF8
3FC3FC
3F80FC
7F00FC
7E00FC
FC00FC
FC01FC
FC01F8
FC03F8
FC03F8
FE03F0
FF07F0
7FC7E0
7FCFE0
3FCFC0
1FDFC0
0F9FC0
003F80
003F80
007F00
007F00
007E00
00FE00
00FFF8
00FFFC
00FFFC
007FFC
003FF0
ENDCHAR
STARTCHAR C0205
ENCODING 205
SWIDTH 583 0
DWIDTH 28 0
BBX 22 40 6 0
BITMAP
0007E0
0007E0
0007E0
000F80
000F00
000E00
000000
000000
007F00
01FFC0
07FFF0
0FFFF8
1FFFF8
3FC3FC
3F80FC
7F00FC
7E00FC
FC00FC
FC01FC
FC01F8
FC03F8
FC03F8
FE03F0
FF07F0
7FC7E0
7FCFE0
3FCFC0
1FDFC0
0F9FC0
003F80
003F80
007F00
007F00
007E00
00FE00
00FFF8
00FFFC
00FFFC
007FFC
003FF0
ENDCHAR
STARTCHAR C0206
ENCODING 206
SWIDTH 583 0
DWIDTH 28 0
BBX 22 41 6 0
BITMAP
000100
000F80
003FC0
007FE0
00FFF0
00FCF0
007060
000000
000000
007F00
01FFC0
07FFF0
0FFFF8
1FFFF8
3FC3FC
3F80FC
7F00FC
7E00FC
FC00FC
FC01FC
FC01F8
FC03F8
FC03F8
FE03F0
FF07F0
7FC7E0
7FCFE0
3FCFC0
1FDFC0
0F9FC0
003F80
003F80
007F00
007F00
007E00
00FE00
00FFF8
00FFFC
00FFFC
007FFC
003FF0
ENDCHAR
STARTCHAR C0207
ENCODING 207
SWIDTH 583 0
DWIDTH 28 0
BBX 22 40 6 0
BITMAP
00F0F0
01F9F8
01F9F8
01F9F8
01F9F8
00F0F0
000000
000000
007F00
01FFC0
07FFF0
0FFFF8
1FFFF8
3FC3FC
3F80FC
7F00FC
7E00FC
FC00FC
FC01FC
FC01F8
FC03F8
FC03F8
FE03F0
FF07F0
7FC7E0
7FCFE0
3FCFC0
1FDFC0
0F9FC0
003F80
003F80
007F00
007F00
007E00
00FE00
00FFF8
00FFFC
00FFFC
007FFC
003FF0
ENDCHAR
STARTCHAR C0208
ENCODING 208
SWIDTH 916 0
DWIDTH 44 0
BBX 51 51 -5 -19
BITMAP
0000001FFF8000
0000007FFFF000
0000007FFFFC00
0000007FFFFE00
0000003FFFFF00
00000001F8FF80
00000003F83FC0
00000003F01FC0
00000007F00FC0
00000007F007E0
00000007E007E0
0000000FE007E0
0000000FC007E0
0000001FC007E0
000001FFFE07E0
000003FFFF07E0
000007FFFF07E0
000007FFFF0FC0
000003FFFC0FC0
0000007E000FC0
000000FE001FC0
000000FE001F80
000000FC003F80
000001FC003F00
000001F8007F00
000003F800FE00
000003F800FE00
000003F001FC00
000007F003FC00
000007F007F800
000007E01FF000
00000FE03FE000
00000FC1FFC000
01FFFFFFFF8000
0FFFFFFFFE0000
1FFFFFFFFC0000
3FFFFFFFE00000
7FFFFFFF000000
7F007F00000000
FE007E00000000
FC00FE00000000
FC00FC00000000
FC01FC00000000
FC03FC00000000
FE07F800000000
7F0FF000000000
7FFFE000000000
3FFFC000000000
1FFF8000000000
0FFF0000000000
03F80000000000
ENDCHAR
STARTCHAR C0209
ENCODING 209
SWIDTH 1000 0
DWIDTH 48 0
BBX 57 51 0 -11
BITMAP
0000000000060000
0000000003EF0000
0000000007FF0000
000000000FFE0000
000000000FFC0000
000000000F380000
0000000000000000
0000000000000000
00000000F003FF00
00000001F807FF80
00000003F807FF80
00000003F807FF80
00000003F80FFE00
00000007F80FC000
00000007F81FC000
0000000FF81F8000
0000000FFC1F8000
0000000FFC3F0000
0000001FFC3F0000
0000001FFC7F0000
0000003FFC7E0000
0000003FFC7E0000
0001F87FFCFC0000
000FFE7EFCFC0000
007FFE7E7DFC0000
00FFFEFE7DF80000
03FFFEFC7FF80000
07FFFDFC7FF00000
0FFF81F87FF00000
1FF801F87FF00000
1FE003F87FE00000
3FC003F07FE00000
3F8007F07FC00000
7F0007E07FC00000
7E0007E07FC00000
7E000FE07F800000
FC000FC07F800000
FC001FC03F000000
FC001F803F000000
FC003F801E000000
FC003F8000000000
FC007F0000000000
FE00FF0000000000
7E01FE0000000000
7F83FC0000000000
7FFFFC0000000000
3FFFF80000000000
1FFFF00000000000
0FFFE00000000000
07FF800000000000
01FE000000000000
ENDCHAR
STARTCHAR C0210
ENCODING 210
SWIDTH 666 0
DWIDTH 32 0
BBX 31 48 3 -7
BITMAP
00000C00
00003F00
00003F00
00003F80
00000F80
00000780
00000380
00000000
00000000
00001FC0
00007FF0
0001FFF8
0003FFFC
000FFFFE
001FF0FE
003FC07E
007F807E
007F007E
00FE01FE
3FFFFFFC
FFFFFFF8
FFFFFFF0
FFFFFFE0
7FFFFF00
0FE00070
0FC000F8
1FC001F8
1F8001F8
3F8001F8
3F0001F8
3F0003F8
3F0003F0
7F0003F0
7E0007F0
7E0007E0
7E000FE0
7E000FC0
7E001FC0
7E003F80
7E003F80
3F007F00
3F80FE00
1FC3FE00
1FFFFC00
0FFFF800
07FFE000
03FFC000
00FE0000
ENDCHAR
STARTCHAR C0211
ENCODING 211
SWIDTH 666 0
DWIDTH 32 0
BBX 31 47 3 -7
BITMAP
000001F0
000003F0
000003F0
000007C0
00000780
00000700
00000000
00000000
00001FC0
00007FF0
0001FFF8
0003FFFC
000FFFFE
001FF0FE
003FC07E
007F807E
007F007E
00FE01FE
3FFFFFFC
FFFFFFF8
FFFFFFF0
FFFFFFE0
7FFFFF00
0FE00070
0FC000F8
1FC001F8
1F8001F8
3F8001F8
3F0001F8
3F0003F8
3F0003F0
7F0003F0
7E0007F0
7E0007E0
7E000FE0
7E000FC0
7E001FC0
7E003F80
7E003F80
3F007F00
3F80FE00
1FC3FE00
1FFFFC00
0FFFF800
07FFE000
03FFC000
00FE0000
ENDCHAR
STARTCHAR C0212
ENCODING 212
SWIDTH 666 0
DWIDTH 32 0
BBX 31 48 3 -7
BITMAP
00000040
000003E0
00000FF0
00001FF8
00003FFC
00003E7C
00001838
00000000
00000000
00001FC0
00007FF0
0001FFF8
0003FFFC
000FFFFE
001FF0FE
003FC07E
007F807E
007F007E
00FE01FE
3FFFFFFC
FFFFFFF8
FFFFFFF0
FFFFFFE0
7FFFFF00
0FE00070
0FC000F8
1FC001F8
1F8001F8
3F8001F8
3F0001F8
3F0003F8
3F0003F0
7F0003F0
7E0007F0
7E0007E0
7E000FE0
7E000FC0
7E001FC0
7E003F80
7E003F80
3F007F00
3F80FE00
1FC3FE00
1FFFFC00
0FFFF800
07FFE000
03FFC000
00FE0000
ENDCHAR
STARTCHAR C0213
ENCODING 213
SWIDTH 666 0
DWIDTH 32 0
BBX 31 47 3 -7
BITMAP
00000018
00000FBC
00001FFC
00003FF8
00003FF0
00003CE0
00000000
00000000
00001FC0
00007FF0
0001FFF8
0003FFFC
000FFFFE
001FF0FE
003FC07E
007F807E
007F007E
00FE01FE
3FFFFFFC
FFFFFFF8
FFFFFFF0
FFFFFFE0
7FFFFF00
0FE00070
0FC000F8
1FC001F8
1F8001F8
3F8001F8
3F0001F8
3F0003F8
3F0003F0
7F0003F0
7E0007F0
7E0007E0
7E000FE0
7E000FC0
7E001FC0
7E003F80
7E003F80
3F007F00
3F80FE00
1FC3FE00
1FFFFC00
0FFFF800
07FFE000
03FFC000
00FE0000
ENDCHAR
STARTCHAR C0214
ENCODING 214
SWIDTH 666 0
DWIDTH 32 0
BBX 32 47 3 -7
BITMAP
00003C1E
00007E3F
00007E3F
00007E3F
00007E3F
00003C1E
00000000
00000000
00001FC0
00007FF0
0001FFF8
0003FFFC
000FFFFE
001FF0FE
003FC07E
007F807E
007F007E
00FE01FE
3FFFFFFC
FFFFFFF8
FFFFFFF0
FFFFFFE0
7FFFFF00
0FE00070
0FC000F8
1FC001F8
1F8001F8
3F8001F8
3F0001F8
3F0003F8
3F0003F0
7F0003F0
7E0007F0
7E0007E0
7E000FE0
7E000FC0
7E001FC0
7E003F80
7E003F80
3F007F00
3F80FE00
1FC3FE00
1FFFFC00
0FFFF800
07FFE000
03FFC000
00FE0000
ENDCHAR
STARTCHAR C0215
ENCODING 215
SWIDTH 458 0
DWIDTH 22 0
BBX 22 17 4 6
BITMAP
038038
07C07C
07C0FC
07E3FC
03E7F0
01FFE0
01FF80
00FF00
01FE00
03FC00
07FE00
1FFE00
3F9F00
FF1F80
FC0F80
F80F80
700700
ENDCHAR
STARTCHAR C0216
ENCODING 216
SWIDTH 562 0
DWIDTH 27 0
BBX 29 33 3 -1
BITMAP
0001F800
000FFF70
003FFFF8
007FFFF8
00FFFFF8
01FE0FF0
03F807E0
07F007F0
07F003F0
0FE003F0
0FC003F0
1FC003F0
1F8003F0
1F8003F0
3F0003F0
3F0007F0
3F0007E0
7F0007E0
7E0007E0
7E000FE0
7E000FC0
7E001FC0
7E001F80
7E003F80
7E007F00
7F00FE00
7F01FE00
FF83FC00
FFFFF800
FFFFF000
7FFFE000
03FF8000
00FC0000
ENDCHAR
STARTCHAR C0217
ENCODING 217
SWIDTH 854 0
DWIDTH 41 0
BBX 45 42 5 -1
BITMAP
000000E00000
000003F00000
000003F80000
000003F80000
000000FC0000
0000007C0000
0000001C0000
000000000000
000000000000
007F00003FF0
01FFC0007FF8
07FFF000FFF8
0FFFF800FFF8
1FFFF801FFE0
3FC3FC01FC00
3F80FC01F800
7F00FC03F800
7E00FC03F000
FC00FC07F000
FC01FC07E000
FC01F807E000
FC03F80FE000
FC03F80FC000
FE03F01FC000
FF87F01F8000
7FE7E01F8000
7FEFE03F8000
3FEFC03F0000
1FFFC07F0000
079FC07E0000
001F807E0000
003F80FE0000
003F00FC0000
003F01FC0000
003F01F80000
003F03F80000
003F87F00000
001FFFF00000
001FFFE00000
000FFFC00000
0003FF800000
0000FC000000
ENDCHAR
STARTCHAR C0218
ENCODING 218
SWIDTH 854 0
DWIDTH 41 0
BBX 45 41 5 -1
BITMAP
0000001F0000
0000003F0000
0000003F0000
0000007C0000
000000780000
000000700000
000000000000
000000000000
007F00003FF0
01FFC0007FF8
07FFF000FFF8
0FFFF800FFF8
1FFFF801FFE0
3FC3FC01FC00
3F80FC01F800
7F00FC03F800
7E00FC03F000
FC00FC07F000
FC01FC07E000
FC01F807E000
FC03F80FE000
FC03F80FC000
FE03F01FC000
FF87F01F8000
7FE7E01F8000
7FEFE03F8000
3FEFC03F0000
1FFFC07F0000
079FC07E0000
001F807E0000
003F80FE0000
003F00FC0000
003F01FC0000
003F01F80000
003F03F80000
003F87F00000
001FFFF00000
001FFFE00000
000FFFC00000
0003FF800000
0000FC000000
ENDCHAR
STARTCHAR C0219
ENCODING 219
SWIDTH 854 0
DWIDTH 41 0
BBX 45 42 5 -1
BITMAP
000000040000
0000003E0000
000000FF0000
000001FF8000
000003FFC000
000003F7C000
000001C18000
000000000000
000000000000
007F00003FF0
01FFC0007FF8
07FFF000FFF8
0FFFF800FFF8
1FFFF801FFE0
3FC3FC01FC00
3F80FC01F800
7F00FC03F800
7E00FC03F000
FC00FC07F000
FC01FC07E000
FC01F807E000
FC03F80FE000
FC03F80FC000
FE03F01FC000
FF87F01F8000
7FE7E01F8000
7FEFE03F8000
3FEFC03F0000
1FFFC07F0000
079FC07E0000
001F807E0000
003F80FE0000
003F00FC0000
003F01FC0000
003F01F80000
003F03F80000
003F87F00000
001FFFF00000
001FFFE00000
000FFFC00000
0003FF800000
0000FC000000
ENDCHAR
STARTCHAR C0220
ENCODING 220
SWIDTH 854 0
DWIDTH 41 0
BBX 45 41 5 -1
BITMAP
00000F03C000
00001F87E000
00001F87E000
00001F87E000
00001F87E000
00000F03C000
000000000000
000000000000
007F00003FF0
01FFC0007FF8
07FFF000FFF8
0FFFF800FFF8
1FFFF801FFE0
3FC3FC01FC00
3F80FC01F800
7F00FC03F800
7E00FC03F000
FC00FC07F000
FC01FC07E000
FC01F807E000
FC03F80FE000
FC03F80FC000
FE03F01FC000
FF87F01F8000
7FE7E01F8000
7FEFE03F8000
3FEFC03F0000
1FFFC07F0000
079FC07E0000
001F807E0000
003F80FE0000
003F00FC0000
003F01FC0000
003F01F80000
003F03F80000
003F87F00000
001FFFF00000
001FFFE00000
000FFFC00000
0003FF800000
0000FC000000
ENDCHAR
STARTCHAR C0221
ENCODING 221
SWIDTH 895 0
DWIDTH 43 0
BBX 45 57 6 -17
BITMAP
0000001F8000
0000003F8000
0000003F8000
0000007E0000
0000007C0000
000000300000
000000000000
000000000000
007F00003FF0
01FFC0007FF8
07FFF000FFF8
0FFFF000FFF8
1FFFF801FFE0
3FC3F801F800
3F80FC01F800
7F00FC03F000
7E00FC03F000
FC00FC03F000
FC01FC07E000
FC01F807E000
FC01F80FE000
FC03F80FC000
FE03F00FC000
FF83F01F8000
7FE7E01F8000
7FE7E03F8000
3FE7E03F0000
1FC7E07F0000
0787F0FE0000
0003FFFE0000
0003FFFE0000
0001FFFC0000
0000FFFC0000
00003FFC0000
000001F80000
0007FFFFC000
007FFFFFE000
01FFFFFFE000
03FFFFFFE000
0FFFFFFFC000
1FFC0FE00000
1FE00FC00000
3FC01FC00000
3F801F800000
7F003F800000
7E003F000000
7E003F000000
7E007F000000
7E00FE000000
7E00FC000000
3F01FC000000
3F87F8000000
3FFFF0000000
1FFFF0000000
0FFFE0000000
03FF80000000
00FE00000000
ENDCHAR
STARTCHAR C0222
ENCODING 222
SWIDTH 812 0
DWIDTH 39 0
BBX 41 43 0 -11
BITMAP
00000000F000
00000001F800
00000001F800
00000003F800
00000003F000
00000007F000
00000007E000
00000007E000
0000000FC000
0000000FC000
0000001FF800
0000001FFE00
0000003FFF00
0000003FFF00
0001F83FFF80
000FFE7E3F80
007FFE7E1F80
00FFFEFE1F80
03FFFEFC1F80
07FFFCFC1F80
0FFF81FC3F00
1FF801FFFF00
1FE003FFFE00
3FC003FFFC00
3F8007FFF800
7F0007FFE000
7E0007E00000
7E000FE00000
FC000FC00000
FC001FC00000
FC001F800000
FC003F800000
FC003F000000
FC007F000000
FE00FE000000
7E01FE000000
7F83FC000000
7FFFFC000000
3FFFF8000000
1FFFF0000000
0FFFE0000000
07FF80000000
01FE00000000
ENDCHAR
STARTCHAR C0223
ENCODING 223
SWIDTH 500 0
DWIDTH 24 0
BBX 26 32 2 0
BITMAP
0001F800
0007FE00
000FFF00
001FFF80
003FFFC0
003F8FC0
007F07C0
007E07C0
00FE07C0
00FC07C0
00FC0F80
01F83F80
01F9FF00
03FBFE00
03F3FC00
03F3F800
07E0FC00
07E07C00
0FC03E00
0FC03E00
0FC03E00
1F803E00
1F803E00
3F007E00
3F007C00
7E00FC00
7E03F800
7EFFF800
FDFFF000
FDFFE000
F8FF8000
707E0000
ENDCHAR
STARTCHAR C0224
ENCODING 224
SWIDTH 458 0
DWIDTH 22 0
BBX 22 27 2 0
BITMAP
00E000
01F000
01F800
01F800
007C00
003C00
001C00
000000
000000
01F8E0
07FDF0
0FFFF0
1FFFF0
3F8FE0
3E07E0
7E07E0
7C0FC0
F80FC0
F80FC0
F81F80
F81F80
FC3F00
FFFFF8
7FFFFC
7FFFFC
3FFFFC
1FE7F0
ENDCHAR
STARTCHAR C0225
ENCODING 225
SWIDTH 458 0
DWIDTH 22 0
BBX 22 26 2 0
BITMAP
000FC0
000FC0
000FC0
001F00
001E00
001C00
000000
000000
01F8E0
07FDF0
0FFFF0
1FFFF0
3F8FE0
3E07E0
7E07E0
7C0FC0
F80FC0
F80FC0
F81F80
F81F80
FC3F00
FFFFF8
7FFFFC
7FFFFC
3FFFFC
1FE7F0
ENDCHAR
STARTCHAR C0226
ENCODING 226
SWIDTH 458 0
DWIDTH 22 0
BBX 22 27 2 0
BITMAP
000200
001F00
007F80
00FFC0
01FFE0
01F3E0
00C0C0
000000
000000
01F8E0
07FDF0
0FFFF0
1FFFF0
3F8FE0
3E07E0
7E07E0
7C0FC0
F80FC0
F80FC0
F81F80
F81F80
FC3F00
FFFFF8
7FFFFC
7FFFFC
3FFFFC
1FE7F0
ENDCHAR
STARTCHAR C0227
ENCODING 227
SWIDTH 458 0
DWIDTH 22 0
BBX 22 27 2 0
BITMAP
000000
007DC0
00FFE0
01FFE0
01FFC0
01FF80
00E700
000000
000000
01F8E0
07FDF0
0FFFF0
1FFFF0
3F8FE0
3E07E0
7E07E0
7C0FC0
F80FC0
F80FC0
F81F80
F81F80
FC3F00
FFFFF8
7FFFFC
7FFFFC
3FFFFC
1FE7F0
ENDCHAR
STARTCHAR C0228
ENCODING 228
SWIDTH 458 0
DWIDTH 22 0
BBX 22 26 2 0
BITMAP
01E0F0
03F1F8
03F1F8
03F1F8
03F1F8
01E0F0
000000
000000
01F8E0
07FDF0
0FFFF0
1FFFF0
3F8FE0
3E07E0
7E07E0
7C0FC0
F80FC0
F80FC0
F81F80
F81F80
FC3F00
FFFFF8
7FFFFC
7FFFFC
3FFFFC
1FE7F0
ENDCHAR
STARTCHAR C0229
ENCODING 229
SWIDTH 458 0
DWIDTH 22 0
BBX 22 28 2 0
BITMAP
001F00
003F80
007FC0
0071C0
0071C0
0071C0
007FC0
003F80
001F00
000000
01F8E0
07FDF0
0FFFF0
1FFFF0
3F8FE0
3E07E0
7E07E0
7C0FC0
F80FC0
F80FC0
F81F80
F81F80
FC3F00
FFFFF8
7FFFFC
7FFFFC
3FFFFC
1FE7F0
ENDCHAR
STARTCHAR C0230
ENCODING 230
SWIDTH 625 0
DWIDTH 30 0
BBX 29 18 2 0
BITMAP
07FC1F00
0FFEFFC0
0FFFFFE0
0FFFFFF0
07FFFFF0
001FE1F0
000FC1F0
0FFFFFF0
3FFFFFE0
7FFFFFC0
FFFFFF80
F81F8000
F83FC000
FFFFFFF0
FFFFFFF8
7FFFFFF8
3FFBFFF8
0FC1FFF0
ENDCHAR
STARTCHAR C0231
ENCODING 231
SWIDTH 375 0
DWIDTH 18 0
BBX 18 30 2 -12
BITMAP
01FC00
07FE00
0FFF00
1FFF80
3FFF80
7F0F80
7E0F80
FC1F00
F80E00
F80000
F80000
F80000
FE0000
FFFF80
7FFFC0
3FFFC0
3FFFC0
0FFF00
01E000
01C000
03F000
07F800
07FC00
063C00
003C00
003C00
003C00
07F800
0FF800
0FE000
ENDCHAR
STARTCHAR C0232
ENCODING 232
SWIDTH 395 0
DWIDTH 19 0
BBX 18 27 2 0
BITMAP
01C000
03E000
03F000
03F000
00F800
007800
003800
000000
000000
01F800
07FE00
0FFF00
1FFF80
3FFF80
7F0F80
7E0F80
7FFF80
FFFF00
FFFE00
FFFC00
FC0000
FC0000
FFFF80
7FFFC0
7FFFC0
3FFFC0
0FFF80
ENDCHAR
STARTCHAR C0233
ENCODING 233
SWIDTH 395 0
DWIDTH 19 0
BBX 18 26 2 0
BITMAP
001F80
001F80
001F80
003E00
003C00
003800
000000
000000
01F800
07FE00
0FFF00
1FFF80
3FFF80
7F0F80
7E0F80
7FFF80
FFFF00
FFFE00
FFFC00
FC0000
FC0000
FFFF80
7FFFC0
7FFFC0
3FFFC0
0FFF80
ENDCHAR
STARTCHAR C0234
ENCODING 234
SWIDTH 395 0
DWIDTH 19 0
BBX 18 27 2 0
BITMAP
000400
003E00
00FF00
01FF80
03FFC0
03E7C0
018180
000000
000000
01F800
07FE00
0FFF00
1FFF80
3FFF80
7F0F80
7E0F80
7FFF80
FFFF00
FFFE00
FFFC00
FC0000
FC0000
FFFF80
7FFFC0
7FFFC0
3FFFC0
0FFF80
ENDCHAR
STARTCHAR C0235
ENCODING 235
SWIDTH 395 0
DWIDTH 19 0
BBX 20 26 2 0
BITMAP
03C1E0
07E3F0
07E3F0
07E3F0
07E3F0
03C1E0
000000
000000
01F800
07FE00
0FFF00
1FFF80
3FFF80
7F0F80
7E0F80
7FFF80
FFFF00
FFFE00
FFFC00
FC0000
FC0000
FFFF80
7FFFC0
7FFFC0
3FFFC0
0FFF80
ENDCHAR
STARTCHAR C0236
ENCODING 236
SWIDTH 270 0
DWIDTH 13 0
BBX 12 27 2 0
BITMAP
0700
0F80
0FC0
0FC0
03E0
01E0
00E0
0000
0000
01C0
07E0
07E0
0FE0
0FC0
0FC0
1F80
1F80
3F80
3F00
3F00
7E00
7E00
FFE0
FFF0
FFF0
7FF0
3FE0
ENDCHAR
STARTCHAR C0237
ENCODING 237
SWIDTH 270 0
DWIDTH 13 0
BBX 15 26 2 0
BITMAP
007E
007E
007E
00F8
00F0
00E0
0000
0000
01C0
07E0
07E0
0FE0
0FC0
0FC0
1F80
1F80
3F80
3F00
3F00
7E00
7E00
FFE0
FFF0
FFF0
7FF0
3FE0
ENDCHAR
STARTCHAR C0238
ENCODING 238
SWIDTH 270 0
DWIDTH 13 0
BBX 15 27 2 0
BITMAP
0020
01F0
07F8
0FFC
1FFE
1F3E
0C0C
0000
0000
01C0
07E0
07E0
0FE0
0FC0
0FC0
1F80
1F80
3F80
3F00
3F00
7E00
7E00
FFE0
FFF0
FFF0
7FF0
3FE0
ENDCHAR
STARTCHAR C0239
ENCODING 239
SWIDTH 270 0
DWIDTH 13 0
BBX 15 26 2 0
BITMAP
0E1C
1F3E
1F3E
1F3E
1F3E
0E1C
0000
0000
01C0
07E0
07E0
0FE0
0FC0
0FC0
1F80
1F80
3F80
3F00
3F00
7E00
7E00
FFE0
FFF0
FFF0
7FF0
3FE0
ENDCHAR
STARTCHAR C0240
ENCODING 240
SWIDTH 416 0
DWIDTH 20 0
BBX 21 32 2 0
BITMAP
003800
007C00
007E00
007E00
003FF8
007FF8
03FFF8
07FFF0
07FF00
03FF00
001F80
001F80
000F80
000F80
00FFC0
07FFC0
0FFFC0
1FFFC0
3FFFE0
7F07E0
7E03E0
7C03E0
F803E0
F803E0
F807E0
F80FC0
FC1FC0
FFFF80
7FFF80
7FFF00
3FFE00
0FF000
ENDCHAR
STARTCHAR C0241
ENCODING 241
SWIDTH 500 0
DWIDTH 24 0
BBX 23 27 2 0
BITMAP
000000
003EE0
007FF0
00FFF0
00FFE0
00FFC0
007380
000000
000000
01C7C0
03FFF0
07FFF8
07FFF8
0FFFF8
0FE1F8
0FC1F8
1FC1F0
1F83F0
3F83E0
3F07E0
3F0FC0
7E0FC0
7E1FFC
FE1FFE
FC1FFE
F81FFE
7007FC
ENDCHAR
STARTCHAR C0242
ENCODING 242
SWIDTH 416 0
DWIDTH 20 0
BBX 19 27 2 0
BITMAP
01C000
03E000
03F000
03F000
00F800
007800
003800
000000
000000
00FC00
07FF00
0FFF80
1FFFC0
3FFFC0
7F07E0
7E03E0
7C03E0
F803E0
F803E0
F807E0
F80FC0
FC1FC0
FFFF80
7FFF80
7FFF00
3FFE00
0FF800
ENDCHAR
STARTCHAR C0243
ENCODING 243
SWIDTH 416 0
DWIDTH 20 0
BBX 19 26 2 0
BITMAP
001F80
001F80
001F80
003E00
003C00
003800
000000
000000
00FC00
07FF00
0FFF80
1FFFC0
3FFFC0
7F07E0
7E03E0
7C03E0
F803E0
F803E0
F807E0
F80FC0
FC1FC0
FFFF80
7FFF80
7FFF00
3FFE00
0FF800
ENDCHAR
STARTCHAR C0244
ENCODING 244
SWIDTH 416 0
DWIDTH 20 0
BBX 19 27 2 0
BITMAP
000400
003E00
00FF00
01FF80
03FFC0
03E7C0
018180
000000
000000
00FC00
07FF00
0FFF80
1FFFC0
3FFFC0
7F07E0
7E03E0
7C03E0
F803E0
F803E0
F807E0
F80FC0
FC1FC0
FFFF80
7FFF80
7FFF00
3FFE00
0FF800
ENDCHAR
STARTCHAR C0245
ENCODING 245
SWIDTH 416 0
DWIDTH 20 0
BBX 19 27 2 0
BITMAP
000000
00FB80
01FFC0
03FFC0
03FF80
03FF00
01CE00
000000
000000
00FC00
07FF00
0FFF80
1FFFC0
3FFFC0
7F07E0
7E03E0
7C03E0
F803E0
F803E0
F807E0
F80FC0
FC1FC0
FFFF80
7FFF80
7FFF00
3FFE00
0FF800
ENDCHAR
STARTCHAR C0246
ENCODING 246
SWIDTH 416 0
DWIDTH 20 0
BBX 20 26 2 0
BITMAP
03C1E0
07E3F0
07E3F0
07E3F0
07E3F0
03C1E0
000000
000000
00FC00
07FF00
0FFF80
1FFFC0
3FFFC0
7F07E0
7E03E0
7C03E0
F803E0
F803E0
F807E0
F80FC0
FC1FC0
FFFF80
7FFF80
7FFF00
3FFE00
0FF800
ENDCHAR
STARTCHAR C0247
ENCODING 247
SWIDTH 458 0
DWIDTH 22 0
BBX 20 19 5 5
BITMAP
003C00
007E00
007E00
007E00
003C00
000000
000000
7FFFE0
FFFFF0
FFFFF0
FFFFF0
7FFFE0
000000
000000
03C000
07E000
07E000
07E000
03C000
ENDCHAR
STARTCHAR C0248
ENCODING 248
SWIDTH 416 0
DWIDTH 20 0
BBX 20 20 1 -1
BITMAP
000060
007FF0
03FFF0
07FFF0
0FFFE0
1FFFE0
1F83F0
3F01F0
3E01F0
7C01F0
7C01F0
7C03F0
7C07E0
7E0FE0
3FFFC0
7FFFC0
FFFF80
FFFF00
FFFC00
700000
ENDCHAR
STARTCHAR C0249
ENCODING 249
SWIDTH 479 0
DWIDTH 23 0
BBX 22 27 2 0
BITMAP
007000
00F800
00FC00
00FC00
003E00
001E00
000E00
000000
000000
038070
07C0F8
0FC1F8
0FC1F8
1F83F0
1F83F0
3F87F0
3F07E0
3F0FE0
7E0FC0
7E0FC0
FC1F80
FC3F80
FFFFF8
FFFFFC
FFFFFC
7FFFFC
1FCFF8
ENDCHAR
STARTCHAR C0250
ENCODING 250
SWIDTH 479 0
DWIDTH 23 0
BBX 22 26 2 0
BITMAP
0007E0
0007E0
0007E0
000F80
000F00
000E00
000000
000000
038070
07C0F8
0FC1F8
0FC1F8
1F83F0
1F83F0
3F87F0
3F07E0
3F0FE0
7E0FC0
7E0FC0
FC1F80
FC3F80
FFFFF8
FFFFFC
FFFFFC
7FFFFC
1FCFF8
ENDCHAR
STARTCHAR C0251
ENCODING 251
SWIDTH 479 0
DWIDTH 23 0
BBX 22 27 2 0
BITMAP
000100
000F80
003FC0
007FE0
00FFF0
00F9F0
006060
000000
000000
038070
07C0F8
0FC1F8
0FC1F8
1F83F0
1F83F0
3F87F0
3F07E0
3F0FE0
7E0FC0
7E0FC0
FC1F80
FC3F80
FFFFF8
FFFFFC
FFFFFC
7FFFFC
1FCFF8
ENDCHAR
STARTCHAR C0252
ENCODING 252
SWIDTH 479 0
DWIDTH 23 0
BBX 22 26 2 0
BITMAP
00F078
01F8FC
01F8FC
01F8FC
01F8FC
00F078
000000
000000
038070
07C0F8
0FC1F8
0FC1F8
1F83F0
1F83F0
3F87F0
3F07E0
3F0FE0
7E0FC0
7E0FC0
FC1F80
FC3F80
FFFFF8
FFFFFC
FFFFFC
7FFFFC
1FCFF8
ENDCHAR
STARTCHAR C0253
ENCODING 253
SWIDTH 437 0
DWIDTH 21 0
BBX 28 43 -6 -17
BITMAP
00001F80
00001F80
00001F80
00003E00
00003C00
00003800
00000000
00000000
000700E0
000F83F0
001F83F0
001F83F0
003F07E0
003F07E0
007E0FE0
007E0FC0
007C1FC0
00FC1F80
00F81F80
01F83F80
01F87F00
01FFFF00
01FFFE00
00FFFE00
00FFFE00
003FFC00
0000FC00
01FFFFC0
0FFFFFE0
1FFFFFE0
3FFFFFE0
7FFFFFC0
7E03E000
FC07E000
F807E000
F80FC000
F81FC000
FC3F8000
7FFF0000
7FFF0000
3FFE0000
1FF80000
07E00000
ENDCHAR
STARTCHAR C0254
ENCODING 254
SWIDTH 437 0
DWIDTH 21 0
BBX 27 48 -5 -16
BITMAP
00001C00
00003E00
00007E00
00007E00
00007C00
0000FC00
0000FC00
0001F800
0001F800
0001F000
0003F000
0003F000
0007E000
0007E000
000FEF00
000FFF80
000FFFC0
001FFFC0
001FFFE0
003FC7E0
003F83E0
003F03E0
007F03E0
007E07E0
00FE07E0
00FC0FC0
00FE1FC0
01FFFF80
01FFFF80
03FFFF00
03F7FE00
03F3F800
07E00000
07E00000
0FC00000
0FC00000
0FC00000
1F800000
1F800000
3F000000
3F000000
7F000000
7E000000
7E000000
FC000000
FC000000
F8000000
70000000
ENDCHAR
STARTCHAR C0255
ENCODING 255
SWIDTH 437 0
DWIDTH 21 0
BBX 28 43 -6 -17
BITMAP
0003C1E0
0007E3F0
0007E3F0
0007E3F0
0007E3F0
0003C1E0
00000000
00000000
000700E0
000F83F0
001F83F0
001F83F0
003F07E0
003F07E0
007E0FE0
007E0FC0
007C1FC0
00FC1F80
00F81F80
01F83F80
01F87F00
01FFFF00
01FFFE00
00FFFE00
00FFFE00
003FFC00
0000FC00
01FFFFC0
0FFFFFE0
1FFFFFE0
3FFFFFE0
7FFFFFC0
7E03E000
FC07E000
F807E000
F80FC000
F81FC000
FC3F8000
7FFF0000
7FFF0000
3FFE0000
1FF80000
07E00000
ENDCHAR
ENDFONT
